<?xml version="1.0" encoding="UTF-8" standalone="no"?>
<!-- Created with Inkscape (http://www.inkscape.org/) -->

<svg
   xmlns:dc="http://purl.org/dc/elements/1.1/"
   xmlns:cc="http://creativecommons.org/ns#"
   xmlns:rdf="http://www.w3.org/1999/02/22-rdf-syntax-ns#"
   xmlns:svg="http://www.w3.org/2000/svg"
   xmlns="http://www.w3.org/2000/svg"
   xmlns:xlink="http://www.w3.org/1999/xlink"
   xmlns:sodipodi="http://sodipodi.sourceforge.net/DTD/sodipodi-0.dtd"
   xmlns:inkscape="http://www.inkscape.org/namespaces/inkscape"
   height="144.57224"
   id="svg1340"
   inkscape:version="0.47 r22583"
   sodipodi:docname="logo.svg"
   sodipodi:version="0.32"
   width="146.87691"
   version="1.1">
  <metadata
     id="metadata3">
    <rdf:RDF>
      <cc:Work
         rdf:about="">
        <dc:title />
        <dc:description>The Planet Jupiter</dc:description>
        <dc:subject>
          <rdf:Bag>
            <rdf:li>astronomy</rdf:li>
            <rdf:li>planet</rdf:li>
            <rdf:li>space</rdf:li>
            <rdf:li>jupiter</rdf:li>
          </rdf:Bag>
        </dc:subject>
        <dc:publisher>
          <cc:Agent
             rdf:about="http://www.openclipart.org/">
            <dc:title>Open Clip Art Library</dc:title>
          </cc:Agent>
        </dc:publisher>
        <dc:creator>
          <cc:Agent>
            <dc:title>Dan Gerhards</dc:title>
          </cc:Agent>
        </dc:creator>
        <dc:rights>
          <cc:Agent>
            <dc:title>Dan Gerhards</dc:title>
          </cc:Agent>
        </dc:rights>
        <dc:date>May 3, 2005</dc:date>
        <dc:format>image/svg+xml</dc:format>
        <dc:type
           rdf:resource="http://purl.org/dc/dcmitype/StillImage" />
        <cc:license
           rdf:resource="http://web.resource.org/cc/PublicDomain" />
        <dc:language>en</dc:language>
      </cc:Work>
      <cc:License
         rdf:about="http://web.resource.org/cc/PublicDomain">
        <cc:permits
           rdf:resource="http://web.resource.org/cc/Reproduction" />
        <cc:permits
           rdf:resource="http://web.resource.org/cc/Distribution" />
        <cc:permits
           rdf:resource="http://web.resource.org/cc/DerivativeWorks" />
      </cc:License>
    </rdf:RDF>
  </metadata>
  <defs
     id="defs1343">
    <inkscape:perspective
       sodipodi:type="inkscape:persp3d"
       inkscape:vp_x="0 : 531.25 : 1"
       inkscape:vp_y="0 : 1000 : 0"
       inkscape:vp_z="1062.5 : 531.25 : 1"
       inkscape:persp3d-origin="531.25 : 354.16667 : 1"
       id="perspective112" />
    <linearGradient
       id="linearGradient64662">
      <stop
         id="stop64670"
         offset="0.0000000"
         style="stop-color:#ffffff;stop-opacity:0.56122446;" />
      <stop
         id="stop64672"
         offset="0.65301758"
         style="stop-color:#686868;stop-opacity:0.22352941;" />
      <stop
         id="stop64674"
         offset="0.82821745"
         style="stop-color:#272727;stop-opacity:0.37647060;" />
      <stop
         id="stop64678"
         offset="0.96875000"
         style="stop-color:#000000;stop-opacity:0.67346936;" />
      <stop
         id="stop64666"
         offset="1.0000000"
         style="stop-color:#000000;stop-opacity:0.93814433;" />
    </linearGradient>
    <linearGradient
       id="linearGradient51740">
      <stop
         id="stop51742"
         offset="0"
         style="stop-color:#9a9595;stop-opacity:1;" />
      <stop
         id="stop51744"
         offset="1.0000000"
         style="stop-color:#c3bdbd;stop-opacity:1.0000000;" />
    </linearGradient>
    <linearGradient
       id="linearGradient21227"
       inkscape:collect="always">
      <stop
         id="stop21229"
         offset="0"
         style="stop-color:#5a5757;stop-opacity:1;" />
      <stop
         id="stop21231"
         offset="1"
         style="stop-color:#5a5757;stop-opacity:0;" />
    </linearGradient>
    <linearGradient
       id="linearGradient21219">
      <stop
         id="stop21221"
         offset="0"
         style="stop-color:#575353;stop-opacity:1;" />
      <stop
         id="stop21223"
         offset="1.0000000"
         style="stop-color:#575353;stop-opacity:0.48453608;" />
    </linearGradient>
    <linearGradient
       id="linearGradient18882">
      <stop
         id="stop18884"
         offset="0"
         style="stop-color:#ac9e97;stop-opacity:1;" />
      <stop
         id="stop18886"
         offset="1"
         style="stop-color:#ac9e97;stop-opacity:0;" />
    </linearGradient>
    <linearGradient
       id="linearGradient12801">
      <stop
         id="stop12803"
         offset="0.0000000"
         style="stop-color:#544941;stop-opacity:1.0000000;" />
      <stop
         id="stop14329"
         offset="0.25000000"
         style="stop-color:#66554b;stop-opacity:1.0000000;" />
      <stop
         id="stop12809"
         offset="0.50000000"
         style="stop-color:#79716b;stop-opacity:1.0000000;" />
      <stop
         id="stop12805"
         offset="1.0000000"
         style="stop-color:#7c7570;stop-opacity:0.39175257;" />
    </linearGradient>
    <linearGradient
       id="linearGradient10517">
      <stop
         id="stop10519"
         offset="0.0000000"
         style="stop-color:#5c554f;stop-opacity:1.0000000;" />
      <stop
         id="stop10525"
         offset="0.50000000"
         style="stop-color:#91847c;stop-opacity:1.0000000;" />
      <stop
         id="stop10521"
         offset="1.0000000"
         style="stop-color:#968881;stop-opacity:0.0000000;" />
    </linearGradient>
    <linearGradient
       id="linearGradient14304">
      <stop
         id="stop14306"
         offset="0.0000000"
         style="stop-color:#b37a21;stop-opacity:0.0000000;" />
      <stop
         id="stop14314"
         offset="0.25000000"
         style="stop-color:#d59023;stop-opacity:0.74901962;" />
      <stop
         id="stop14308"
         offset="1.0000000"
         style="stop-color:#be8327;stop-opacity:0.0000000;" />
    </linearGradient>
    <linearGradient
       id="linearGradient4368">
      <stop
         id="stop4370"
         offset="0.0000000"
         style="stop-color:#b37c58;stop-opacity:0.11372549;" />
      <stop
         id="stop4376"
         offset="0.50000000"
         style="stop-color:#a06c4a;stop-opacity:0.90980393;" />
      <stop
         id="stop4372"
         offset="1.0000000"
         style="stop-color:#a36b46;stop-opacity:0.14117648;" />
    </linearGradient>
    <linearGradient
       id="linearGradient2844">
      <stop
         id="stop2846"
         offset="0.0000000"
         style="stop-color:#d3cec6;stop-opacity:0.0000000;" />
      <stop
         id="stop15860"
         offset="0.50000000"
         style="stop-color:#c8dadb;stop-opacity:1.0000000;" />
      <stop
         id="stop2848"
         offset="1.0000000"
         style="stop-color:#e5e1d7;stop-opacity:0.0000000;" />
    </linearGradient>
    <linearGradient
       gradientTransform="scale(3.743818,0.267107)"
       gradientUnits="userSpaceOnUse"
       id="linearGradient4374"
       inkscape:collect="always"
       x1="430.9686"
       x2="430.0658"
       xlink:href="#linearGradient4368"
       y1="1581.6711"
       y2="877.62262" />
    <linearGradient
       gradientTransform="scale(2.676365,0.373641)"
       gradientUnits="userSpaceOnUse"
       id="linearGradient14310"
       inkscape:collect="always"
       x1="579.1579"
       x2="579.15796"
       xlink:href="#linearGradient14304"
       y1="839.86169"
       y2="1928.7681" />
    <linearGradient
       gradientTransform="scale(3.16598,0.315858)"
       gradientUnits="userSpaceOnUse"
       id="linearGradient15080"
       inkscape:collect="always"
       x1="512.59045"
       x2="510.31213"
       xlink:href="#linearGradient4368"
       y1="1752.4631"
       y2="908.04553" />
    <linearGradient
       gradientTransform="scale(3.364782,0.297196)"
       gradientUnits="userSpaceOnUse"
       id="linearGradient15858"
       inkscape:collect="always"
       x1="467.1571"
       x2="468.13147"
       xlink:href="#linearGradient2844"
       y1="1167.2245"
       y2="1773.8597" />
    <linearGradient
       gradientTransform="matrix(2.676365,0,0,-0.373641,-0.507182,1063.923)"
       gradientUnits="userSpaceOnUse"
       id="linearGradient24985"
       inkscape:collect="always"
       x1="579.1579"
       x2="579.15796"
       xlink:href="#linearGradient14304"
       y1="839.86169"
       y2="1928.7681" />
    <linearGradient
       gradientTransform="scale(2.722964,0.367247)"
       gradientUnits="userSpaceOnUse"
       id="linearGradient30307"
       inkscape:collect="always"
       x1="574.75409"
       x2="572.15936"
       xlink:href="#linearGradient4368"
       y1="1265.5339"
       y2="2230.1174" />
    <linearGradient
       gradientTransform="scale(3.04656,0.328239)"
       gradientUnits="userSpaceOnUse"
       id="linearGradient38758"
       inkscape:collect="always"
       x1="509.61478"
       x2="508.46997"
       xlink:href="#linearGradient2844"
       y1="1495.5979"
       y2="2369.3716" />
    <linearGradient
       gradientTransform="scale(1.885669,0.530316)"
       gradientUnits="userSpaceOnUse"
       id="linearGradient10523"
       inkscape:collect="always"
       x1="816.99457"
       x2="817.94824"
       xlink:href="#linearGradient10517"
       y1="52.498665"
       y2="696.24774" />
    <linearGradient
       gradientTransform="scale(1.909074,0.523814)"
       gradientUnits="userSpaceOnUse"
       id="linearGradient12807"
       inkscape:collect="always"
       x1="886.77301"
       x2="886.77289"
       xlink:href="#linearGradient12801"
       y1="1915.6602"
       y2="1200.3076" />
    <linearGradient
       gradientTransform="scale(3.306156,0.302466)"
       gradientUnits="userSpaceOnUse"
       id="linearGradient18888"
       inkscape:collect="always"
       x1="405.81302"
       x2="524.67627"
       xlink:href="#linearGradient18882"
       y1="2649.2329"
       y2="2289.1848" />
    <linearGradient
       gradientTransform="scale(3.264176,0.306356)"
       gradientUnits="userSpaceOnUse"
       id="linearGradient21225"
       inkscape:collect="always"
       x1="439.16702"
       x2="517.40582"
       xlink:href="#linearGradient21219"
       y1="2503.1338"
       y2="2503.1326" />
    <linearGradient
       gradientTransform="scale(3.264173,0.306356)"
       gradientUnits="userSpaceOnUse"
       id="linearGradient21233"
       inkscape:collect="always"
       x1="343.37961"
       x2="551.04156"
       xlink:href="#linearGradient21227"
       y1="2488.2991"
       y2="2488.2991" />
    <linearGradient
       gradientTransform="scale(2.226814,0.449072)"
       gradientUnits="userSpaceOnUse"
       id="linearGradient51746"
       inkscape:collect="always"
       x1="755.36578"
       x2="753.53058"
       xlink:href="#linearGradient51740"
       y1="246.27426"
       y2="700.08417" />
    <linearGradient
       gradientTransform="scale(2.226814,0.449072)"
       gradientUnits="userSpaceOnUse"
       id="linearGradient51754"
       inkscape:collect="always"
       x1="731.50769"
       x2="733.34302"
       xlink:href="#linearGradient51740"
       y1="238.65872"
       y2="706.862" />
    <radialGradient
       cx="959.96558"
       cy="557.81592"
       fx="959.96558"
       fy="557.81592"
       gradientTransform="scale(1.023027,0.977491)"
       gradientUnits="userSpaceOnUse"
       id="radialGradient64668"
       inkscape:collect="always"
       r="507.19891"
       xlink:href="#linearGradient64662" />
    <linearGradient
       inkscape:collect="always"
       xlink:href="#linearGradient51740"
       id="linearGradient2923"
       gradientUnits="userSpaceOnUse"
       gradientTransform="matrix(0.31788225,0,0,0.06920839,-146.2934,31.011198)"
       x1="755.36578"
       y1="246.27426"
       x2="753.53058"
       y2="700.08417" />
    <linearGradient
       inkscape:collect="always"
       xlink:href="#linearGradient51740"
       id="linearGradient2925"
       gradientUnits="userSpaceOnUse"
       gradientTransform="matrix(0.31788225,0,0,0.06920839,-146.2934,31.011198)"
       x1="731.50769"
       y1="238.65872"
       x2="733.34302"
       y2="706.862" />
    <linearGradient
       inkscape:collect="always"
       xlink:href="#linearGradient10517"
       id="linearGradient2951"
       gradientUnits="userSpaceOnUse"
       gradientTransform="matrix(0.26918313,0,0,0.08172925,-146.29339,31.011207)"
       x1="816.99457"
       y1="52.498665"
       x2="817.94824"
       y2="696.24774" />
    <linearGradient
       inkscape:collect="always"
       xlink:href="#linearGradient2844"
       id="linearGradient2966"
       gradientUnits="userSpaceOnUse"
       gradientTransform="matrix(0.48032953,0,0,0.04580213,-146.2934,31.011198)"
       x1="467.1571"
       y1="1167.2245"
       x2="468.13147"
       y2="1773.8597" />
    <linearGradient
       inkscape:collect="always"
       xlink:href="#linearGradient4368"
       id="linearGradient2970"
       gradientUnits="userSpaceOnUse"
       gradientTransform="matrix(0.45195014,0,0,0.04867822,-146.2934,31.011198)"
       x1="512.59045"
       y1="1752.4631"
       x2="510.31213"
       y2="908.04553" />
    <linearGradient
       inkscape:collect="always"
       xlink:href="#linearGradient14304"
       id="linearGradient2973"
       gradientUnits="userSpaceOnUse"
       gradientTransform="matrix(0.3820566,0,0,0.0575834,-146.29339,31.011207)"
       x1="579.1579"
       y1="839.86169"
       x2="579.15796"
       y2="1928.7681" />
    <linearGradient
       inkscape:collect="always"
       xlink:href="#linearGradient4368"
       id="linearGradient2976"
       gradientUnits="userSpaceOnUse"
       gradientTransform="matrix(0.53443769,0,0,0.04116499,-146.2934,31.011198)"
       x1="430.9686"
       y1="1581.6711"
       x2="430.0658"
       y2="877.62262" />
    <linearGradient
       inkscape:collect="always"
       xlink:href="#linearGradient2844"
       id="linearGradient2979"
       gradientUnits="userSpaceOnUse"
       gradientTransform="matrix(0.43490269,0,0,0.0505863,-146.2934,31.011198)"
       x1="509.61478"
       y1="1495.5979"
       x2="508.46997"
       y2="2369.3716" />
    <linearGradient
       inkscape:collect="always"
       xlink:href="#linearGradient4368"
       id="linearGradient2981"
       gradientUnits="userSpaceOnUse"
       gradientTransform="matrix(0.38870869,0,0,0.056598,-146.2934,31.011198)"
       x1="574.75409"
       y1="1265.5339"
       x2="572.15936"
       y2="2230.1174" />
    <linearGradient
       inkscape:collect="always"
       xlink:href="#linearGradient14304"
       id="linearGradient2983"
       gradientUnits="userSpaceOnUse"
       gradientTransform="matrix(0.3820566,0,0,-0.0575834,-146.3658,194.97689)"
       x1="579.1579"
       y1="839.86169"
       x2="579.15796"
       y2="1928.7681" />
    <inkscape:perspective
       id="perspective2993"
       inkscape:persp3d-origin="0.5 : 0.33333333 : 1"
       inkscape:vp_z="1 : 0.5 : 1"
       inkscape:vp_y="0 : 1000 : 0"
       inkscape:vp_x="0 : 0.5 : 1"
       sodipodi:type="inkscape:persp3d" />
    <inkscape:perspective
       sodipodi:type="inkscape:persp3d"
       inkscape:vp_x="0 : 0.5 : 1"
       inkscape:vp_y="0 : 1000 : 0"
       inkscape:vp_z="1 : 0.5 : 1"
       inkscape:persp3d-origin="0.5 : 0.33333333 : 1"
       id="perspective2828" />
    <inkscape:perspective
       id="perspective10"
       inkscape:persp3d-origin="0.5 : 0.33333333 : 1"
       inkscape:vp_z="1 : 0.5 : 1"
       inkscape:vp_y="0 : 1000 : 0"
       inkscape:vp_x="0 : 0.5 : 1"
       sodipodi:type="inkscape:persp3d" />
    <linearGradient
       gradientUnits="userSpaceOnUse"
       y2="133.46172"
       x2="183.21532"
       y1="43.55175"
       x1="183.45749"
       id="linearGradient3608"
       xlink:href="#linearGradient3602"
       inkscape:collect="always" />
    <inkscape:perspective
       id="perspective10-8"
       inkscape:persp3d-origin="0.5 : 0.33333333 : 1"
       inkscape:vp_z="1 : 0.5 : 1"
       inkscape:vp_y="0 : 1000 : 0"
       inkscape:vp_x="0 : 0.5 : 1"
       sodipodi:type="inkscape:persp3d" />
    <linearGradient
       id="linearGradient3602">
      <stop
         id="stop3604"
         offset="0"
         style="stop-color:#cbacac;stop-opacity:1;" />
      <stop
         style="stop-color:#f6d078;stop-opacity:0;"
         offset="1"
         id="stop3635" />
    </linearGradient>
    <inkscape:perspective
       id="perspective10-3"
       inkscape:persp3d-origin="372.04724 : 350.78739 : 1"
       inkscape:vp_z="744.09448 : 526.18109 : 1"
       inkscape:vp_y="0 : 1000 : 0"
       inkscape:vp_x="0 : 526.18109 : 1"
       sodipodi:type="inkscape:persp3d" />
  </defs>
  <sodipodi:namedview
     bordercolor="#666666"
     borderopacity="1.0"
     id="base"
     inkscape:current-layer="svg1340"
     inkscape:cx="128.69065"
     inkscape:cy="117.7879"
     inkscape:pageopacity="0"
     inkscape:pageshadow="2"
     inkscape:window-height="976"
     inkscape:window-width="1918"
     inkscape:window-x="0"
     inkscape:window-y="27"
     inkscape:zoom="10.24"
     pagecolor="#ffffff"
     showborder="true"
     showgrid="true"
     borderlayer="false"
     inkscape:snap-global="false"
     showguides="true"
     inkscape:window-maximized="1">
    <inkscape:grid
       type="xygrid"
       id="grid3773"
       empspacing="5"
       visible="true"
       enabled="true"
       snapvisiblegridlinesonly="true" />
  </sodipodi:namedview>
  <path
     d="m 1599.7044,1016.0989 c -2.5567,-2.2064 -8.2018,-0.435 -13.9939,3.6955 -82.7921,-169.86951 -47.5138,-344.14113 20.9939,-453.69551 3.3333,0.33334 23.4742,-9.64742 27,-10 4.116,-0.4116 29.2998,7.41008 51,1 4.1925,-1.25774 6.0122,-3.59878 12,-3 3.6695,0.36695 10.3841,2.80794 14,1 2.4461,-1.22305 6.8347,-5.94958 10,-5 3.9969,1.19908 11.0598,13.16008 24,9 4.2133,-1.53212 27.5662,-4.34338 51,-7 3.3941,0.33941 15.4049,1.28098 19,2 3.8243,0.76486 13.4408,6.06776 17,5 4.316,-1.29478 28.5603,-2.13473 50,-10 1.2822,1.12196 17.2534,12 31,12 15.1817,3 35.5795,-11.02616 39,-10 3.3333,1 6.7294,4.1893 10,3 1.9803,-0.72012 7.3577,-5.82114 11,-4 4.0909,2.04544 1.3688,5.86312 10,5 22.0353,-2.50353 36.1368,-7.97265 41,-7 8.815,0.963 22.8956,9.03133 23,9 5.2498,-1.57494 34.2021,-11.55958 37,-11 14.4818,-1.30364 12.956,13.5044 18,13 4.3226,-0.43226 33.7458,-10.22542 55,-8 4.3869,0.43869 21.7123,11.02877 30,12 10.0026,0.79975 44.8957,-19.22087 46,-19 3.5204,0.70409 21.8958,1.45232 25,5 2.3333,2.66667 11.5049,14.49903 19,13 5.2942,-1.05884 47.0061,0.31294 48,-3 0.8626,-2.87544 2.0997,-19.90029 4,-18 3.2714,1.2714 13.5686,18.32942 29,17 3.6991,-1.10974 19.9246,-8.30553 23,-4 2.9533,4.13466 -1.2338,11.15584 5,7 1.693,-1.12863 12.6399,-11.47202 20,-10 4.2186,0.84373 20.036,5.80721 38,1 6.3725,1.2745 20.2426,8.24851 24,9 4.4989,0.89979 28.7508,2.14145 34,5.5 74.7444,124.48793 108.3023,316.86479 -7.2929,501.91421 -3.5952,0.049 -22.8034,8.3569 -36.7071,6.5858 -12.4721,1.6584 -28.1999,-12.7001 -30,-10 -3.0931,4.6396 -4.5645,17.6455 -10,15.5 -3.2532,3.5319 -1.8319,-6.6475 -6,-8.5 -3,-1.3333 -4.717,16.5 -7.5,14 -4.4016,1.5 -3.1015,-13.9492 -9,-11 -0.5668,0.2834 -0.6746,13.0849 -5.5,11 -4,2.6667 0.3333,-11 -3,-10 -2.8015,0.8405 -19.9088,4.2729 -24,2 -4.0098,-2.2276 -20.8722,-18.0851 -46,-17 -12.072,2.7147 -7.286,16 -14,16 -4.679,0 -38,3 -43,3 -4.6049,0 -8.6852,-5.5 -12,-5.5 -3.6165,0 -13.8483,7.0759 -17,5.5 -3.2541,-1.627 -16.2642,-11 -20,-11 -4.9288,0 -26.2564,0.4007 -42,-7 -2.1834,-1.9104 -11.9704,-0.5259 -3,-15 12.7568,-7.6622 15.8701,1.5994 48.6182,0.6847 16.374,-0.4573 55.1567,5.2914 91.2579,3.9835 36.1012,-1.3079 64.5208,-10.6723 86.1687,-11.3557 43.2957,-1.3668 30.5044,6.9903 62.9042,4.9715 32.3998,-2.0188 33.9908,-15.4135 56.051,-22.284 -9.0141,-8.9718 -28.6537,-11.974 -60.9296,-10.7964 -32.2758,1.1775 -74.1881,20.5349 -90.7475,20.2824 -33.1188,-0.505 -56.8266,-13.4496 -99.2103,-13.1512 -42.3838,0.2983 -16.4436,8.8396 -48.2667,9.3064 -31.823,0.4667 -46.4092,-7.1412 -54.8459,-7.1412 -5,0 -19.1146,9.0114 -48,8.5 -26.1753,-0.4825 -51.4463,-10.9743 -55,-9 -2.0329,1.1294 -11.5507,9.8575 -19,12 -5,1.6667 -7.0564,-9.1169 -10,-10 -30.4323,-3.6297 -42.1347,8.7306 -60,7 -10.3333,1.3333 -1.0334,-8.7033 -4,-9 -11.176,-0.4176 -26.4647,6.1035 -32.5,5.5 -4.7985,-0.4799 -24.4777,-1.5022 -29.5,-1 -4.8291,0.4829 -25.6245,-4.5 -29,-4.5 -5.5681,0 -9.465,4.4465 -15,5 -4.3679,0.4368 -11.8184,-5.0363 -17,-4 -3.5394,0.7079 -20.5614,6.6316 -26,5 -3.817,-1.1451 -35.8046,-5.5805 -40,-6 -12.8514,-3.4852 -29.4852,4.2059 -30,4 -14.7156,-9.4862 -65.1623,-2.5487 -70,-4 -4.3369,-1.3011 -11.9642,-5 -16,-5 -9.826,6 -36.4289,4.9142 -41,4 -5.5907,-1.1182 -12.4433,-1.7936 -15,-4 z"
     id="path2119"
     sodipodi:nodetypes="cccccccccccccccccccccccccccccccccccccccccccccccccccccccccccscccccccccccccccccccccc"
     style="fill:#c2c6ce;fill-opacity:1;fill-rule:evenodd;stroke:none;display:none" />
  <path
     style="fill:url(#linearGradient2976);fill-opacity:1;fill-rule:evenodd;stroke:#af6d4a;stroke-width:0.42151344;stroke-linecap:round;stroke-linejoin:round;stroke-miterlimit:4;stroke-opacity:0.39459456;stroke-dashoffset:0;marker-start:none;marker-mid:none"
     sodipodi:nodetypes="ccccccccccccccccccccccccccccccccccccccscscccccccccccccccccccccccccccccccccccccccccccccc"
     id="path1325"
     d="m 140.60526,80.758083 c -0.52907,0.0962 -2.23898,-0.024 -3.25461,-0.24326 -3.13548,-0.46896 -7.96217,0.21795 -8.88281,0.21795 -1.90238,-0.0771 -4.23212,-0.9138 -5.04703,-1.08975 -1.24401,-0.35336 -3.6028,0.51745 -5.6527,-0.4359 -2.30674,0.1247 -5.1052,-0.13705 -5.85458,-0.21795 -1.35366,-0.14614 -1.58373,-0.81637 -2.37569,-1.24387 -1.61456,-0.871523 -0.54443,0.76226 -1.25818,1.24387 -1.16972,0.78926 -1.2586,-0.6039 -1.81695,-0.87181 -1.87806,-0.90113 -0.57593,0.72541 -1.21127,1.52566 -0.87842,1.10639 -1.46487,-0.15815 -2.01884,-0.21795 -0.57209,-0.0617 -1.0767,-0.4359 -1.61505,-0.65386 -0.45871,-0.1857 -0.94212,0.29061 -1.41317,0.43591 -0.637237,0.19657 -1.211297,-0.58121 -1.816937,-0.8718 -0.48029,-0.23045 0.1122,1.10297 -1.00941,1.3077 -0.46598,0.60369 -1.4611,-1.44973 -2.06674,-1.88563 -0.78633,-0.56594 0.83637,1.98371 -0.55772,2.10358 -0.36114,0.6823 -1.21127,-0.8718 -1.81693,-1.3077 -0.77921,-0.56083 -1.76556,-1.07019 -2.48277,-1.50035 -0.22943,0.49169 0.89733,1.453 -0.22428,2.37215 -0.31722,0.68495 -2.831516,-1.79392 -2.851866,-1.80857 -1.4682,-1.056709 -0.23111,0.88339 -0.9013,1.15471 -0.98765,0.39986 -1.667879,-0.055 -2.422589,-0.21794 -0.756538,-0.16336 -1.721742,-0.50253 -2.422571,-0.65385 0.517196,0.8283 -0.149366,1.28996 -0.201876,1.7436 -0.109797,0.94819 -1.756556,-0.2485 -2.624471,-0.4359 -3.821337,-1.72666 -8.751154,-2.272186 -10.497862,-2.17951 -0.641613,-0.06927 -1.208368,0.5798 -1.816937,0.87181 -1.071668,0.5142 -1.432858,-0.28125 -2.220712,-0.4359 -0.835036,-0.16391 -1.476267,-0.31194 -2.624463,-0.43591 -1.097765,-0.118508 -1.900446,-0.117988 -2.826347,-0.217951 -1.00429,-0.108415 -1.963568,-0.113458 -3.02823,-0.217943 -1.06246,0.130398 -0.403759,0.290594 -0.605643,0.435894 -0.736459,0.53006 1.74375,0.34082 2.624471,0.43591 1.758419,0.27459 3.768454,1.08975 4.4414,1.30769 0.847777,0.27458 -2.972305,0.68203 -5.45081,0.21796 -4.296737,-0.18261 -5.785005,-2.632338 -7.772451,-2.833359 -0.699815,-0.377754 -9.581493,-0.912832 -10.29598,-1.144235 -0.491322,-0.159128 -4.940833,0.0036 -6.411879,0.02916 -1.47106,0.02575 -3.748925,-0.684785 -3.884096,-0.301621 0.295525,0.832868 3.146081,0.985213 5.418551,1.166468 2.039657,0.162691 5.481009,0.391437 5.836364,0.468161 2.29021,0.47271 6.131269,0.822426 7.822925,2.179506 0.439131,0.82966 -2.147501,0.34081 -3.028231,0.43591 -0.986272,0.10646 -5.007282,-0.12649 -5.854574,-0.21797 -1.122031,-0.12112 -1.776278,0.1046 -2.826347,0.21797 -0.986274,0.10646 -10.740979,-0.65386 -11.709151,-0.65386 -1.129355,0 -6.225617,-0.065 -8.680923,0.43589 -1.553143,0.19265 -6.020083,-1.11244 -7.955956,-0.65497 -0.63342,1.41108 -0.972814,2.05486 -1.617168,3.57861 0.253043,0.3891 3.409889,-0.0903 3.718548,-0.0903 1.972992,0.2697 6.612061,-0.43175 8.882804,0.21794 0.699954,0.0756 1.586231,0.66631 2.220706,0.87181 0.833445,0.26993 5.767398,0.13517 8.47903,-1.08975 0.70047,-0.30248 11.507274,-0.21795 12.516685,-0.21795 0.811249,0 1.585432,0.47309 2.422587,0.65384 0.922809,0.19926 9.557748,0.20047 12.112914,-0.21795 0.986272,-0.10648 11.507254,0 12.516672,0 0.485266,0 0.53834,0.87181 0.807535,1.30771 0.291526,0.47211 -0.807535,0.7265 -1.211294,1.08975 1.433531,0.0266 1.75398,0.094 2.624463,0 0.883242,-0.0954 2.927244,-1.23065 7.873399,-1.30771 2.235498,0 0.555477,0.74962 0.807518,1.08975 0.531749,0.71759 -1.607274,0.60775 -2.422571,0.8718 -0.923507,0.29911 -3.970354,0.79916 -4.441408,1.08977 3.835258,-0.14237 7.21921,-0.29466 7.873389,-0.43591 0.933597,-0.20159 1.65926,-0.63194 2.422596,-1.08975 0.793988,-0.47623 1.424946,-0.61407 2.220696,-0.8718 0.833437,-0.26994 8.075273,0 9.084683,0 0.88931,0 1.76891,-0.46912 2.62446,-0.65386 0.75186,-0.16234 1.80013,-0.21794 2.82634,-0.21794 1.009407,0 8.075267,0.0385 9.084677,0.0385 1.00941,0 7.6439,-0.58042 8.68093,-0.69238 1.76618,-0.19068 0.87008,0.82192 1.61506,1.52566 0.50896,0.48078 -0.13459,1.45299 -0.20188,2.1795 -0.058,0.62604 1.9223,0.54583 2.42257,0.65385 1.29528,0.27967 1.839,-0.46485 2.42257,-0.65385 0.72066,-0.23341 0.32892,-1.58924 0.40378,-2.39746 0.0223,-0.24028 2.22755,-0.61174 2.42259,-0.65385 0.91134,-0.19678 1.72041,-0.21795 2.82633,-0.21795 1.00941,0 2.01882,0 3.02824,0 1.46981,0 0.76767,0.94719 1.41318,1.7436 0.33194,0.40956 1.00831,1.63287 1.21129,1.96155 0.61096,0.98939 1.66157,0.0604 2.22069,0 0.69003,-0.0745 1.16476,-1.10027 1.61505,-1.52565 0.78617,-0.74265 1.72653,-0.51706 2.99359,-0.65385 -0.455,-1.20691 -0.84923,-2.08777 -1.35403,-3.24395 z" />
  <path
     style="opacity:0.48677243;fill:url(#linearGradient2973);fill-opacity:1;fill-rule:evenodd;stroke:none"
     sodipodi:nodetypes="ccccccccccccccccccccccccccccccccccccc"
     id="path9715"
     d="m 146.85302,103.80894 c -0.36489,-4.690127 -1.77738,-11.089807 -3.03961,-14.794967 -0.55563,0 -3.47011,0 -4.88821,0 -6.01975,-0.8718 -16.28084,-2.1576 -26.55187,-2.1576 -1.61787,0 -15.900357,0.12733 -26.049633,1.34189 -1.559647,-0.16838 -11.902024,-0.26088 -13.349925,-0.4172 -0.635239,-0.0686 -1.142022,0.61646 -1.713032,0.92468 -0.838346,0.45254 -0.761344,1.84937 -1.142023,2.77406 -0.363284,0.88245 -2.780777,1.03195 -3.711548,1.23291 -2.481305,0.53576 -0.835302,-2.029 -1.142021,-2.77405 -0.503958,-1.22414 2.108105,-1.41452 3.140545,-2.1576 1.296491,-0.93312 -7.993309,-1.62792 -12.006025,-1.01497 -1.485899,-0.16041 -15.684553,-1.09918 -24.824001,2.24788 -0.902278,0.60881 -1.903355,-1.02742 -2.855041,-1.54114 -0.899809,-0.48572 -6.883873,-0.98757 -11.420165,1.23291 -1.980569,0.85528 -1.596309,0.13011 -3.325108,-0.61645 C 11.475095,87.096763 4.946301,86.924083 3.658977,86.924083 1.522336,93.680553 0.777899,97.381233 0,104.22615 c 2.027292,0.97494 4.379033,-0.10898 5.8803,-0.10898 10.595825,0.8718 20.081671,-1.61076 25.12436,-0.92469 2.94703,0.31816 -0.199139,1.28996 -0.285504,1.84937 -0.174929,1.13307 -1.903356,1.02743 -2.855042,1.54115 -0.841794,0.45439 2.081496,1.12753 2.569535,1.23291 1.398929,0.30206 4.046322,0.12952 5.52849,0.28953 2.059112,-0.73668 3.356446,-0.23632 5.659446,-0.84977 1.596427,-0.17755 3.390991,-0.27019 5.63701,-0.77622 2.24602,-0.50602 3.303625,-2.39989 6.225956,-2.38471 1.771426,-1.38121 3.976289,0.54799 6.719716,-0.88036 0.844079,-4.982767 4.857617,-1.67745 5.917392,-1.56304 1.006635,0.10867 1.332353,1.64389 1.998533,2.46583 0.218639,2.43369 -4.813252,0.99383 -5.13907,3.08228 -0.571044,0.98638 2.607849,1.1179 3.140537,1.23292 1.476749,0.31885 5.570291,-0.1191 10.768503,-2.41295 3.999585,-0.58704 16.790571,-0.17911 20.922451,0.25534 16.446217,-1.46181 18.310717,-2.783 21.412817,-3.08228 2.0144,-0.43495 5.43594,-1.03366 9.99263,-0.92468 1.59553,0 3.96905,1.32739 17.63496,1.54114 z" />
  <path
     style="opacity:0.86243388;fill:url(#linearGradient2970);fill-opacity:1;fill-rule:evenodd;stroke:#a8592e;stroke-width:0.47936827;stroke-linecap:butt;stroke-linejoin:miter;stroke-miterlimit:4;stroke-opacity:0.2"
     sodipodi:nodetypes="cccccccccccccccccccccccccccccccsssccccccccccccccssscccccccccccccccccccccc"
     id="path11992"
     d="m 146.63723,101.81947 c -0.42545,-3.596177 -1.03338,-6.030767 -1.61506,-8.935957 -0.93496,-0.0173 -2.82411,-0.26232 -4.03765,-0.38142 -0.96878,-0.0951 -3.13174,-1.37364 -5.24892,-1.3077 -1.91697,-0.41391 -0.61624,0.99795 -1.21129,1.96155 -0.26492,0.42902 -1.99849,0.36832 -2.62446,0.43591 -1.65975,-1.03045 -1.23186,-2.40855 -3.73482,-2.83336 -0.95047,-0.51306 -1.22853,1.39125 -1.51411,1.7436 -0.76947,0.94939 -1.60579,0.0664 -2.2207,0 -1.71625,-1.28594 -4.28429,-2.06806 -5.04706,-2.39746 -1.47986,-0.63906 -1.08339,1.36458 -1.21128,1.52566 -0.97018,1.22197 0.0755,0.73332 0.20189,1.96156 0.17268,1.67806 -1.57183,1.17226 -2.82636,1.3077 -2.84849,-0.0739 -5.89692,-2.47656 -10.90161,-3.48721 -0.93205,-0.30187 -2.19231,0.12771 -3.02823,0.21795 -0.91655,0.099 -1.47389,0.46212 -2.422597,0.8718 -0.86597,0.37396 -5.0181,-0.54175 -6.05644,-0.65385 -2.87283,-0.31015 -0.93287,-1.40996 -1.00941,-1.52565 -0.0623,-0.0943 -0.69282,-1.04715 -1.00941,-1.52565 -0.41724,-0.63062 -6.866817,0.42592 -10.901632,1.52565 -1.258675,0.40766 -1.185754,1.01459 -1.816928,1.52565 -0.481518,0.38988 0.538356,1.1624 0.807518,1.74361 0.142343,0.30731 -2.634686,0.83041 -2.826339,0.8718 -0.950626,0.20525 -4.440011,-0.69714 -5.248926,-0.8718 -1.025601,-0.22146 -5.052288,-0.54545 -6.056462,-0.65386 -0.7304,-0.0789 -4.882999,-0.84046 -5.652694,-1.08975 -0.933738,-0.30242 -5.719988,0 -6.86397,0 -1.090701,0 -1.282802,0.69245 -2.018829,1.08975 -0.793688,0.42844 -3.368634,-0.0203 -5.047042,-1.3077 -0.431975,-0.23317 0.953036,-2.05779 1.00941,-2.1795 0.702067,-1.51593 -0.618301,-1.06802 -1.00941,-1.74361 -0.05893,-0.10174 -0.796116,1.03261 -1.657165,1.10564 -0.657994,0.0558 -1.644067,-0.80629 -2.602073,-0.79435 -0.958007,0.0119 -1.182555,1.1331 -2.945503,0.95707 -0.952157,-0.0951 -1.228553,-1.32233 -1.879945,-1.26836 -0.912714,0.0985 -1.373219,0.74125 -2.018828,1.08976 -0.755117,0.4076 -1.325795,0.71566 -2.018815,1.08974 -0.909899,0.49117 -1.338314,3.65976 -2.018813,4.35901 -4.480658,0.42377 -6.990411,-1.11704 -7.873404,-1.3077 -1.294989,-0.27961 -1.489346,0.19904 -2.220694,0.4359 -1.038721,0.33642 -3.767668,-0.6073 -4.441402,-0.8718 -0.93341,-0.36644 -3.54022,-0.65228 -5.652693,0 -2.708206,0.21424 -6.698069,-1.75293 -7.621048,-1.85258 -1.03812,3.5495 -1.589858,6.32106 -2.119753,10.189177 1.854621,2.09964 3.248337,1.10807 4.491878,1.47117 0.986276,0.10648 11.57912,0.32844 14.535485,-1.08975 1.022991,-0.40161 2.112474,1.18704 5.047056,1.3077 0.986274,0.10648 6.302003,-0.46568 9.029525,-1.22897 0.303261,0.0571 0.394052,0.37272 0.970141,0.69519 0.527313,0.29516 0.746052,1.46131 1.078706,1.80034 0.422404,0.43049 1.380913,0.3703 1.799604,-0.36875 0.165792,-0.29265 0.09158,-0.67486 -0.01628,-1.90883 0.971241,0.10486 1.726785,-0.18771 3.490747,-0.0787 0.735145,0 2.367543,1.19873 5.047042,1.08976 1.138364,0 3.742191,-1.15673 4.4414,-1.30771 0.51841,-0.11193 1.450195,-0.7828 2.01882,-1.08975 0.760494,-0.410507 4.851226,0.42435 8.47904,-0.653847 2.749478,-0.12247 4.224889,1.106807 4.845159,1.307697 0.991732,0.3212 4.274655,0.87181 5.248943,0.87181 1.132506,0 4.81918,0.09 5.652695,0 0.741071,-0.08 1.576813,-0.47124 2.422571,-0.65385 0.922825,-0.19926 3.696829,-0.0668 5.450826,0.87179 0.979426,0.31723 3.902022,0.40696 5.652672,0 3.0186,0.74208 8.81957,0.29016 9.48845,0.21795 0.986287,-0.10647 2.036147,0 3.028237,0 0.68013,0 11.88899,0.43465 13.52607,-1.7436 0.79061,-0.31038 3.4276,-0.937657 5.45083,-0.21795 0.98626,0.10648 9.19077,-0.521407 11.50727,0.65385 0.60592,0.19625 0.67006,1.90277 0.80752,2.39746 0.21619,0.778 3.21101,-2.21594 3.63387,-2.61541 1.04642,-0.988487 1.85158,2.10792 3.63388,2.61541 0.37456,0.40439 1.97694,-0.77611 2.2207,-0.8718 0.76476,-0.30024 2.14146,-0.49039 3.2301,-0.49039 z" />
  <path
     style="fill:#8f4d0c;fill-opacity:1;fill-rule:evenodd;stroke:#965311;stroke-width:0.27274403;stroke-linecap:round;stroke-linejoin:round;stroke-miterlimit:4;stroke-opacity:0.5081081"
     sodipodi:nodetypes="cscccsc"
     id="path13528"
     d="m 39.828592,95.616303 c -1.15582,-0.82433 -1.256261,-2.23919 -3.269109,-3.84762 -1.730183,-1.38254 -3.097804,-0.16867 -3.581762,-0.13839 -0.927932,-0.16842 -2.168946,1.15355 -1.413531,1.92582 1.160131,0.11757 2.035273,-0.82523 3.152979,-0.96896 0.17904,-0.0459 1.138248,-0.10416 1.839331,0.14923 2.210501,0.79892 1.876163,2.74922 3.272092,2.87992 z" />
  <path
     style="fill:url(#linearGradient2966);fill-opacity:1;fill-rule:evenodd;stroke:#82481c;stroke-width:0.39671853;stroke-linecap:butt;stroke-linejoin:miter;stroke-miterlimit:4;stroke-opacity:0.24324323"
     id="path13510"
     d="m 144.01278,97.514953 c -1.3611,-3.09361 -3.32778,0.82882 -5.56638,-0.57133 -2.31318,-1.19418 -4.90239,-1.54148 -6.95439,-2.94485 -3.19237,-1.69856 -1.61552,2.97058 0.66445,2.83242 2.31843,-0.8267 4.0968,2.61636 6.78334,1.74753 2.02672,0.76678 3.28725,-1.35671 5.07298,-1.06377 z m -24.52864,0.10897 c 0.0439,2.883377 -4.17303,1.44305 -5.14801,-0.43589 -1.75476,-1.32752 -0.74605,2.32499 -2.89841,1.22118 -2.06089,-0.66789 -3.37016,0.71545 -4.87861,1.56895 -1.31523,-0.7926 -0.64224,-4.85074 -2.57711,-2.11651 -2.09229,1.44228 -2.48132,-4.19177 -5.392667,-2.5262 -1.8997,0.67302 -3.89874,-1.50043 -5.26462,-1.47492 1.86451,-1.40474 4.67228,1.14987 7.056327,0.27619 2.07603,-0.13062 2.49532,3.97468 4.77306,1.76159 1.11472,1.03225 1.56362,2.39223 3.2845,1.26121 1.30301,-0.27384 5.14285,1.42151 3.25165,-1.52601 -1.16117,-1.53028 2.75309,0.98498 3.47617,1.39517 1.31955,0.83972 3.12254,1.04419 3.25705,-0.8974 0.61925,0.1285 0.94957,0.89688 1.06067,1.49264 z m -17.76562,0.43591 c 0.0263,-2.54511 -2.699427,-2.51691 -3.759067,-0.65588 -2.67854,0.55013 -5.23206,-1.76052 -7.71198,-2.66504 -2.02683,-2.69143 -4.569946,-0.155 -1.70503,1.85914 2.44878,2.05234 5.93832,1.49269 8.43184,3.532297 2.17452,1.49798 1.12492,-2.166877 3.129167,-1.089747 0.53399,-0.73938 0.41405,-1.63884 1.61507,-0.98077 z m -13.627043,0.21794 c -1.22078,0.21525 -2.875314,-0.24638 -4.179027,-1.07274 -3.483734,1.7864 -7.466172,0.86996 -11.063053,-0.017 -2.54059,-1.73821 -5.631286,-1.18457 -8.082364,-2.90798 -2.611922,0.42224 2.099845,2.52435 3.168238,2.37324 2.6421,0.75955 5.256915,2.27269 8.074826,2.82089 2.624388,-0.41618 4.969151,0.684157 7.45428,0.751837 1.788704,-0.616417 5.373466,2.4151 4.6271,-1.948227 z m -21.803239,-0.10897 c 1.163862,-0.79336 2.258826,0.78266 3.398288,0.84519 0.863377,-0.0657 3.320656,0.27679 2.589907,1.428117 -1.468722,1.01253 -2.561558,-1.112427 -4.030004,-0.938467 -1.170254,-0.17742 -2.368375,-0.0588 -3.527891,-0.29563 -0.833731,-0.93246 -1.700199,-1.78268 -2.853765,-2.25363 -1.156266,-0.91572 -2.261486,0.51818 -3.517485,0.5375 -1.010798,1.13802 -1.991892,-1.11623 -3.100478,0.0794 -0.663139,-0.11137 -1.477356,-1.38296 -1.677137,0.0526 -1.088415,-0.1926 -2.21605,-1.09884 -3.464801,-0.77683 -1.076306,0.004 -2.815501,1.56559 -2.442119,2.69881 1.076098,0.2006 3.257532,0.554857 3.080573,-1.26812 0.732636,-1.39661 2.535751,-0.16173 3.517851,0.35159 1.251628,0.62484 2.760116,-0.61051 3.900118,0.28463 -0.672272,1.357097 -2.421948,0.40766 -3.582203,0.67148 -1.120596,0.3035 -1.99653,-1.03607 -2.89788,-0.88285 -0.619389,1.15592 -1.639729,1.832737 -2.915641,1.543307 -1.269213,-0.0994 -2.907662,-0.543947 -3.180979,-2.103467 0.0836,-1.22153 -1.655486,-3.25746 -2.194092,-1.34829 -0.199,1.79679 -1.680394,1.76806 -2.963562,1.5256 -1.248926,-0.10299 -2.59983,-0.0367 -3.58225,-1.03881 -0.382062,-0.47835 -1.910394,-1.7893 -1.989107,-1.34533 1.510203,1.14629 -0.832302,1.84441 -1.426206,0.65048 -1.355405,-1.2185 0.27127,-2.89322 1.520037,-3.10755 1.297217,-0.55307 2.476362,0.53654 2.846362,1.82309 0.672263,1.37294 2.296669,1.25839 3.527743,1.1849 1.270294,-0.39386 1.681924,-2.44085 3.31625,-1.76219 1.660273,0.35347 2.901246,2.32944 4.726277,1.89858 1.329303,-0.28468 2.700825,-1.10683 4.001754,-0.19775 1.076705,-0.77201 2.391812,-0.85834 3.479163,0.0606 1.356064,0.0573 2.787725,0.2249 4.091405,-0.27862 1.541309,-0.63308 1.947852,1.19488 3.129168,1.74361 0.691088,0.35231 1.496113,0.64851 2.220704,0.21794 z m -27.455957,0.65386 c 1.143076,0.50321 -0.02547,2.184537 -1.015792,1.591507 -0.595948,0.0901 -1.797008,-0.439497 -1.921387,-0.23241 0.66164,0.82225 1.432401,1.70171 1.395587,2.86698 -0.108793,1.35922 -1.867083,0.91396 -2.076257,-0.1732 -0.436707,-1.1852 -1.394774,-1.93137 -2.498334,-2.28354 -0.797697,-0.37783 -2.37251,-1.010787 -2.08358,-2.086227 0.804236,-1.07676 2.060925,-0.1117 2.589894,0.77837 0.979693,0.716877 1.550973,-0.0311 1.542265,-1.12098 1.196262,0.0249 1.79462,1.962437 3.095178,1.26286 0.410026,-0.025 0.689564,-0.31351 0.972426,-0.60336 z m 46.230967,-7.30135 c -0.380646,-0.23668 -5.46887,-0.29804 -2.619992,0.6779 1.774393,-0.48062 3.306871,0.77248 3.218421,2.64718 0.59618,-1.2003 0.96584,-3.03013 2.37536,-1.75712 0.585126,-1.62307 -2.14535,-1.21233 -2.973789,-1.56796 z m -1.413161,1.63463 c -0.73409,2.63682 -3.952136,1.40136 -5.932427,2.57416 -2.044858,0.61632 -6.085981,-2.71663 -6.585401,-0.7959 2.593214,1.3862 5.650209,1.06452 8.454963,1.491 1.445026,-0.18637 6.071895,1.20164 2.750642,-1.08975 1.005362,0.49876 2.033389,-3.12267 1.732455,-0.62513 0.710644,2.93868 1.502208,-3.08469 -0.420232,-1.55438 z m -54.508099,5.66672 c -0.793701,-0.49276 -2.203208,0.40196 -2.422603,-1.08976 -0.403061,-0.64732 -1.022218,-1.37229 -1.498911,-0.32075 -1.115036,0.68692 -2.356693,-0.2937 -3.467976,-0.55569 -1.164985,-0.36826 -2.409768,0.28536 -3.539608,-0.1705 -1.211352,-0.53009 -0.514834,-2.23768 -1.495184,-2.90548 -0.879482,-0.274 -1.941,0.90717 -3.019704,0.46521 -0.768521,0.0707 -2.364873,-0.55846 -2.454752,0.57348 0.834431,0.80002 1.926996,0.76596 2.964446,0.74335 0.914514,-0.0882 2.395665,-0.76345 2.689706,0.67752 0.286531,1.09117 1.095978,1.91389 2.137412,2.11083 1.278931,0.49035 2.718769,-0.41518 3.914502,0.41313 1.055096,0.70276 2.224465,-0.1804 3.314718,-0.14165 0.763224,0.46699 1.921371,1.388667 2.713475,0.80388 0.08269,-0.19133 0.03539,-0.43457 0.164479,-0.60357 z m 99.023042,-3.92311 c -1.69806,-1.15637 -4.15948,-0.91063 -5.91358,-2.48242 -1.07619,-0.84118 -3.48674,-1.32427 -1.35415,0.085 1.28346,2.86757 4.38468,1.99629 6.76072,2.34272 l 0.50701,0.0547 0,0 z m 0.10094,2.07053 c 0.97932,0.39556 5.06395,2.18166 3.09769,3.111427 -1.06375,-0.958907 -2.68029,-1.556047 -3.09769,-3.111427 z" />
  <path
     style="fill:#8f4d0c;fill-opacity:1;fill-rule:evenodd;stroke:#965311;stroke-width:0.27274403;stroke-linecap:round;stroke-linejoin:round;stroke-miterlimit:4;stroke-opacity:0.5081081"
     sodipodi:nodetypes="ccccc"
     id="path18150"
     d="m 44.889298,80.172553 c -0.741371,-0.49279 -9.951391,-0.34783 -13.488844,-0.59549 -0.927933,-0.16842 -3.667843,-0.15643 -2.912429,0.61585 1.160133,0.11757 8.673244,-0.13172 13.217003,0.34101 1.285976,0.0624 2.81919,0.0708 3.18427,-0.36137 z" />
  <path
     style="opacity:0.49206351;fill:url(#linearGradient2983);fill-opacity:1;fill-rule:evenodd;stroke:none"
     sodipodi:nodetypes="ccssscccccsccccccccccccccccccccccccccccccccccc"
     id="path24983"
     d="m 146.6919,121.12791 c -0.61466,5.92305 -1.72435,10.71548 -3.48622,15.84618 -0.13891,0 -0.91781,-0.0346 -1.35487,0.32012 -1.1495,0.9331 -1.43462,3.68664 -2.85494,3.603 -2.04514,-0.12042 0.0576,-2.77887 -0.69502,-3.37143 -0.52852,-0.41612 -0.91046,0.10218 -1.26497,0.10218 -6.01976,0.87179 -0.10374,3.12515 -6.53899,3.12515 -1.01817,-1.03365 -3.06069,-1.82809 -3.76872,-6.88423 -1.31368,-1.78689 -3.58198,-3.30138 -6.99526,-3.42931 -3.21136,0.41696 -6.34422,0.50881 -8.1512,5.0498 1.92285,-2.1975 4.0005,-5.27149 11.62522,-3.16286 3.2164,0.8895 2.92987,5.69477 2.81504,5.70207 -0.31304,3.87256 -5.9898,6.45865 -10.68888,6.54365 -1.77181,-0.24192 -4.98851,-0.26055 -7.04348,-2.79623 -2.66061,-0.90102 -4.66425,-1.59472 -9.763537,-3.07773 -2.07106,0.0426 -7.54062,1.1485 -9.66348,1.12216 -2.122846,-0.0263 -4.230073,-1.29381 -6.238555,-1.42093 -2.008523,-0.12713 -3.514501,1.10406 -5.242477,0.84429 -1.727958,-0.25976 -2.87037,-0.7028 -4.151668,-1.12705 -1.559626,0.16838 -9.782247,2.54937 -11.230148,2.70568 -0.635239,0.0685 -6.404004,-0.22467 -10.41672,-0.83762 -2.869755,-1.83972 -5.627328,-0.26163 -8.076785,-0.98557 -2.04569,-0.94188 -1.96632,-2.44218 -3.199796,-0.73988 -2.808523,3.87601 -4.621216,0.43494 -5.097066,0.6918 -0.224947,0.12142 -2.843264,-0.59389 -3.989677,-0.46214 -0.573207,0.0659 -1.459797,1.73292 -2.908417,1.3158 -1.448618,-0.41712 -1.945167,-1.71973 -2.747705,-1.70851 -1.605076,0.0224 -0.901237,1.26796 -2.502199,1.06143 -1.60098,-0.20654 -1.872895,-0.66643 -3.006973,-1.22156 -0.495136,-0.21381 -0.988487,1.38352 -1.93122,1.18705 -0.639917,-0.0875 -2.435823,-1.31486 -3.113508,-1.29346 -0.677689,0.0214 -0.724525,1.09228 -1.047473,1.51326 -0.75119,0.42101 -2.297537,-0.99572 -2.729733,-0.80908 -2.50026,0.99252 -5.502064,0.53005 -6.789388,0.53005 -1.851137,-5.25384 -3.38071,-10.53421 -4.265674,-17.37911 2.027294,-0.97496 7.66216,-1.4486 9.163426,-1.4486 1.324483,-0.10898 12.081863,1.10643 14.499767,1.10829 2.417907,0.002 4.089148,0.46403 6.820009,0.29362 2.8318,-0.71531 6.319475,-0.86453 8.938262,-0.7778 2.618803,0.0867 4.671532,0.5183 7.056064,0.6377 2.384531,0.1194 5.605561,-0.0734 7.532694,0.0722 4.147845,-0.18131 14.706509,-2.36985 19.904715,-0.076 3.999584,0.58703 12.651989,-0.91064 16.783885,-1.3451 20.685717,-0.17282 24.266217,0.93041 27.368317,1.22969 2.01442,0.43496 9.47359,-1.14583 14.03029,-1.2548 1.5955,0 0.75117,1.21755 14.41706,1.00381 z" />
  <path
     style="opacity:0.84656085;fill:url(#linearGradient2981);fill-opacity:1;fill-rule:evenodd;stroke:#a8592e;stroke-width:0.44630843;stroke-linecap:round;stroke-linejoin:round;stroke-miterlimit:4;stroke-opacity:0.2"
     sodipodi:nodetypes="cccccccccccccccccccccccccccccccccccccsscccccccccccc"
     id="path28019"
     d="m 143.69263,135.23965 c 0.93399,-3.08613 1.50668,-5.32686 2.08459,-8.08343 -10.87795,2.34846 -18.98756,3.09881 -23.00282,-1.36948 -1.90107,-0.033 -0.41681,-1.7912 -8.82676,-1.15966 -6.12589,-0.75552 -5.44407,-0.89366 -7.80801,-1.23133 -4.72788,-0.67534 -5.00836,0.47122 -9.007437,1.52806 -3.1839,-0.22107 -6.5657,-0.20044 -7.56246,-0.8302 -3.709056,1.52783 -7.174357,0.17062 -10.739414,0.58447 -5.706342,0.72206 -5.588225,2.21342 -10.624149,0.88504 -1.839883,0.10637 -0.418046,-0.87747 -2.236977,-1.62785 0.322344,-0.82743 1.686495,-1.57552 0.01679,-1.76822 -0.502602,0 -2.870328,0.78701 -3.472979,0.83095 -1.17367,-0.18723 -4.954416,-0.10036 -5.628201,-0.0279 -0.673793,0.0725 -1.147615,0.92061 -1.846133,1.00125 -0.698511,0.0807 1.518844,1.16608 0.374587,1.01963 -0.716005,0.0847 -5.435999,0.40165 -6.162252,0.48639 -0.726261,0.0847 -1.95549,-1.60384 -2.684768,-1.52315 -0.729286,0.0807 -2.337034,-0.30258 -3.03202,-0.25845 -0.695004,0.0442 -3.300019,-0.0918 -3.935989,-0.0924 -0.635978,0 -2.875699,0.73085 -3.423737,0.66925 -0.548027,-0.0616 2.212841,-0.911 1.434114,-1.39447 -0.148161,-0.28948 -5.052066,0.95098 -6.992566,1.22978 -0.584341,-1.41645 -2.487826,0.36654 -3.844142,0.16037 -2.855198,0.48734 -4.021209,0.98904 -6.913538,1.32519 -2.892314,0.33616 -5.441036,-0.0326 -7.492869,-0.20736 -1.1271,-0.0547 -1.898216,1.19646 -3.485249,1.36842 -1.658407,0.17197 2.076986,-1.35172 0.898167,-2.64104 -0.339592,-0.60615 -2.104036,-0.4987 -4.324529,1.27638 -2.648765,0.15687 -3.46956,1.21079 -3.634911,1.72701 0.454436,0.57011 2.317266,1.8406 4.131086,1.81158 10.957376,0.0323 23.013601,0.36721 24.014552,0.66073 0.821337,-0.79236 1.34595,-2.61865 12.017506,0.62426 2.748821,-1.84289 9.434885,1.22933 17.154545,-1.94109 3.276332,0.95176 -5.208227,3.21926 -1.589114,3.10662 8.575598,-0.54427 1.564588,4.1661 -3.490475,2.75159 -0.68936,0.42522 3.139158,-0.17559 7.069079,3.98334 1.645879,0.84548 1.466011,-0.7927 1.753216,-1.97988 4.417073,1.47382 5.926401,0.0564 11.152324,0.35251 5.225905,0.29608 10.880809,2.11389 13.25227,2.0801 3.287946,-0.0469 6.930376,-1.59689 10.446876,-1.73919 0.46959,-0.0475 1.1782,0.59709 1.99161,1.58733 0.813417,0.99024 7.013417,1.70977 6.974287,2.81409 2.81587,1.87491 5.81644,2.74756 9.7953,3.04239 4.62128,0.21775 8.50784,-4.22636 8.0994,-8.2846 -0.33706,2.10636 -1.24864,5.19101 -4.42922,6.64537 -1.8958,1.3773 -10.48593,-0.10857 -11.04833,-1.441 -0.56242,-1.33246 -5.87344,-1.97208 -6.136,-2.98628 -0.26258,-1.01421 1.8824,-0.70773 2.38506,-0.76446 1.43957,2.54714 0.86585,-1.63423 3.79775,-3.92845 6.3161,-4.99627 12.43461,-8.79723 18.4929,-0.72782 3.93035,9.74191 9.82321,0.4752 16.03904,2.45557 z" />
  <path
     style="fill:url(#linearGradient2979);fill-opacity:1;fill-rule:evenodd;stroke:#82481c;stroke-width:0.39671853;stroke-linecap:butt;stroke-linejoin:miter;stroke-miterlimit:4;stroke-opacity:0.24705882"
     id="path37143"
     d="m 143.47746,124.66336 c -2.38247,-0.0152 -5.12547,-0.56268 -7.53264,0.0597 -2.67742,-0.53291 -5.21389,3.36694 -7.98982,0.87203 -3.07017,0.27315 -6.26645,0.004 -9.21629,1.0606 -2.44992,1.4662 -4.79828,1.59354 -7.69463,3.67817 -3.03974,1.6153 0.51489,6.20531 -2.51553,4.34146 -0.7637,-1.42893 2.73219,-5.83088 3.65664,-6.4331 -1.43778,-0.0123 -5.65171,2.38722 -6.19,5.49064 -0.68771,3.27328 -3.89299,1.32081 -3.82899,-1.06921 -2.932077,-1.40517 -5.227557,2.29848 -8.207887,2.27641 -0.79574,1.72682 -4.90026,2.22967 -2.91954,-0.0932 2.75164,-0.0898 4.13667,-2.47146 6.70246,-3.29736 1.03844,-2.62403 3.761367,0.59445 5.208327,-1.97311 3.17359,-0.29813 5.72671,-2.1564 8.23671,-4.08595 1.91849,-1.23851 1.11443,3.80067 3.29726,1.54436 2.25779,-2.75368 5.69223,-1.29619 8.5323,-2.15316 2.70987,0.44744 5.75465,-1.52383 7.9382,0.55281 1.13755,-1.90258 3.56975,-1.58238 5.33026,-2.05301 1.77936,1.79568 4.08042,-2.61779 5.17378,0.3596 0.66846,0.26171 1.44921,0.55302 2.01939,0.92231 z m -35.60083,-0.51133 c 0.62482,0.26076 1.28458,1.3661 0.27599,1.60571 -0.83952,0.17828 -1.68033,-0.1039 -2.48937,-0.31742 -0.69145,0.005 -1.73724,0.10771 -2.01629,0.8459 0.0971,0.77726 0.72921,1.42593 0.44675,2.25806 -0.52903,0.604 -1.59852,0.54397 -1.91199,-0.28354 -0.34429,-0.91225 -0.76834,0.67344 -1.08581,0.97705 -0.54322,0.54252 -1.325217,0.70469 -2.034197,0.85752 -0.74112,-0.0696 -1.33397,0.39477 -1.92606,0.79978 -0.71034,0.48675 -1.55967,0.71976 -2.38818,0.47385 -0.65304,-0.15394 -1.4186,-0.98135 -2.06618,-0.4691 -0.65607,0.68622 -1.50333,1.15374 -2.39026,1.36683 -1.05261,0.26174 -1.24111,-1.20434 -1.18629,-2.02714 -0.19668,-0.59409 -1.483616,-0.93597 -0.91968,-1.70288 1.04399,-0.50729 2.2222,-0.71319 3.36048,-0.56635 1.20156,0.50579 2.39335,1.16658 3.69826,1.27777 0.94926,0.13957 1.72841,-0.64609 2.68061,-0.53409 0.839,-0.22901 1.52,-0.90349 2.236517,-1.39878 0.3572,-0.82828 0.78644,-1.62156 1.43118,-2.23383 0.70319,-0.54513 1.51842,-0.96365 2.3912,-1.0476 1.05119,-0.21105 2.13108,-0.0861 3.19298,-0.0964 0.24346,0.0283 0.46687,0.14382 0.70034,0.2147 z m -16.024107,8.19059 c -0.65065,0.33915 -1.2168,0.84361 -1.89372,1.13156 -0.48334,0.30849 -1.04198,0.41771 -1.56862,0.60497 -0.604156,0.0516 -1.222816,0.0416 -1.821526,-0.0701 -0.55969,-0.18545 -1.1452,-0.0516 -1.704002,0.0596 -0.392098,0.19205 -0.743548,0.47915 -1.094939,0.74573 -0.285393,0.33734 -0.659348,0.60323 -1.103042,0.51761 -0.447035,0.0362 -0.877838,-0.0903 -1.270543,-0.31495 -0.330531,-0.12537 -1.215541,-0.67495 -1.15891,0.0722 -0.0966,0.60144 0.584433,0.71303 0.94564,0.9701 0.432839,0.20632 0.927122,0.18384 1.389699,0.18409 0.525532,-0.0746 0.995746,-0.5405 1.547492,-0.33211 0.609125,0.0133 0.914398,0.62334 1.414435,0.88881 0.63901,0.30492 1.29719,0.57351 1.96546,0.79395 0.4793,0.1508 1.026906,-0.0125 1.431186,-0.29116 0.39347,-0.37959 0.22711,-0.77715 -0.24969,-0.90316 -0.47625,-0.28328 -1.042196,-0.19645 -1.564286,-0.23258 -0.51497,0.10934 -1.05781,-0.049 -1.15297,-0.68788 -0.27092,-0.55129 0.6381,-0.47982 0.93315,-0.59441 0.49743,0.0286 1.00162,0.10847 1.489736,-0.0498 0.64128,-0.1172 1.12921,-0.66438 1.78481,-0.76259 0.57702,-0.12222 1.15778,0.10714 1.7399,0.0274 0.50849,0.10213 0.86032,-0.32156 1.21942,-0.6289 0.30977,-0.34093 0.79399,-1.05807 0.11404,-1.27883 -0.19261,-0.18339 -1.21976,0.015 -1.39272,0.15037 z m 9.671657,-7.88239 c -1.929357,1.04095 -1.936717,2.36647 -3.426057,2.15761 -1.33926,0.15083 -2.72733,-0.35174 -4.03047,0.005 -1.36077,0.17047 -2.83938,0.18231 -4.17606,-0.2353 -1.27357,-0.24721 -2.897366,1.34191 -2.560606,2.77661 0.64841,1.00725 0.33753,2.61812 1.613226,2.93369 0.74693,1.315 -2.040886,2.08308 -1.807106,0.4815 -0.0308,-1.51532 -1.878674,-1.03212 -2.814556,-1.10736 -1.181241,-0.23681 -2.316198,0.11142 -3.406059,0.58603 -1.256581,0.52173 -2.297922,1.54283 -3.588229,1.95661 -1.040336,0.20368 -1.983357,-0.382 -2.999691,-0.42749 -0.851267,-0.13653 -2.329221,-0.0724 -1.731258,1.25753 0.182345,1.52898 -1.727503,1.18594 -2.630265,1.17368 -0.833042,0.32541 -2.98793,-0.48758 -1.558031,-1.37619 1.528111,-0.0565 1.852109,-1.52331 1.995208,-2.86195 1.109311,-0.78011 2.22128,0.51271 3.339232,0.65503 1.317974,0.5694 2.665661,0.10599 3.827795,-0.63231 1.233925,-0.69839 0.324181,-2.6259 -0.951698,-1.86848 -1.080437,0.67926 -2.739954,1.6063 -3.826058,0.69055 -0.672888,-1.71982 0.08755,-3.27143 2.892561,-4.46995 0.391741,-0.3995 6.860621,-0.79203 8.288052,-0.43561 0.749415,0.0241 -0.493136,0.7941 -2.199976,1.16985 -1.70684,0.37574 -3.877977,0.35723 -4.12922,0.96188 1.27582,0.73009 2.361617,0.28888 3.783397,0.19225 1.513317,-0.16837 2.983051,-0.68069 4.273576,-1.55538 1.33184,-0.4409 2.42323,-1.48421 3.773836,-1.84782 0.6254,0.90106 1.87393,1.01835 2.92651,0.63464 1.24116,-0.19021 2.56533,-0.62232 3.78152,-0.11889 1.04835,1.52821 1.84072,0.27812 3.08884,0.14308 0.40085,-0.12548 1.469387,-1.25844 2.251587,-0.83927 z m -32.261975,8.01396 c -0.422259,-0.0413 -0.847602,-0.0443 -1.270319,-0.0757 -0.409867,0.14417 -0.611493,0.61461 -0.915478,0.91413 -0.25623,0.38141 -0.238503,0.95385 -0.650224,1.21162 -0.297942,0.29168 -0.643225,0.48295 -1.008869,0.17534 -0.367008,-0.28459 -0.81883,-0.196 -1.182929,0.0426 -0.35484,0.14935 -0.757086,0.15822 -1.126629,0.0854 -0.475625,-0.18543 -0.91326,-0.53947 -1.443596,-0.50125 -0.482988,-0.006 -0.990386,-0.0502 -1.436457,0.19175 -0.382549,0.19276 -0.158874,0.82736 -0.249963,1.20234 -0.0091,0.40091 0.159082,0.78082 0.321896,1.12858 0.286747,0.25172 0.568384,0.52897 0.901349,0.7098 0.292857,0.0504 0.81824,0.54537 0.988143,0.11158 0,-0.39305 0.169537,-0.74643 0.137813,-1.14698 -0.06782,-0.42001 0.08574,-0.89334 0.555137,-0.82447 0.36414,-0.2175 0.779053,-0.13309 1.16968,-0.0654 0.498007,0.0167 0.902987,0.35086 1.34201,0.55403 0.408945,0.12474 0.835618,0.16473 1.253597,0.23882 0.315189,-0.0362 0.878196,-0.12204 0.850786,-0.57361 -0.0092,-0.65608 -0.03565,-1.31337 -0.01488,-1.96966 0.160071,-0.33872 0.59419,-0.32033 0.863809,-0.52315 0.26553,-0.16967 0.880738,-0.11701 0.864283,-0.52541 -0.04214,-0.12132 -0.0058,-0.25291 0.05078,-0.36037 z m 0.42826,-3.15935 c -0.03948,0.44045 -0.09584,0.88233 -0.162822,1.3182 -0.172163,0.30338 -0.322177,0.6821 -0.627085,0.84933 -0.305098,0.0883 -0.705209,0.48962 -0.969484,0.11984 -0.222869,-0.33103 -0.621201,-0.29709 -0.952895,-0.28388 -0.384959,0.0609 -0.643441,0.43599 -0.999594,0.58295 -0.425086,0.19622 -0.815597,0.5117 -1.292676,0.53954 -0.341268,0.0806 -0.716005,0.064 -0.96842,-0.22731 -0.376665,-0.0991 -0.331611,-0.57428 -0.473821,-0.87429 -0.114643,-0.41823 -0.04929,-0.86642 -0.02518,-1.29404 0.110545,-0.42721 0.174341,-0.87388 0.342349,-1.28044 0.200612,-0.38023 0.367913,-0.84526 0.783807,-1.0028 0.502428,-0.25912 0.993943,-0.54376 1.521969,-0.74116 0.512775,-0.21634 1.070995,-0.0669 1.60419,-0.0878 0.490352,0.0274 0.984402,0.0667 1.452256,0.23945 0.41153,0.099 0.842541,0.0375 1.249084,0.17739 0.274041,0.11721 0.633735,0.0803 0.845477,0.30843 0.235344,0.4549 0.473821,0.91975 0.581,1.43286 0.132586,0.39283 -0.256678,0.70328 -0.455911,0.95746 -0.340148,-0.15094 -0.458946,-0.61941 -0.800904,-0.80816 -0.267724,-0.27999 -0.527884,-0.65463 -0.938783,-0.65594 -0.165223,-0.0593 -0.74782,-0.15888 -0.39037,0.15347 0.262388,0.1902 0.344086,0.51193 0.677858,0.57691 z M 59.34094,137.4829 c -0.678273,0.14031 -1.372686,0.0341 -2.056552,0.10266 -0.607613,0.002 -1.203058,-0.18012 -1.746916,-0.46364 -0.787921,-0.32215 -1.659825,-0.3435 -2.477532,-0.15287 -0.364523,0.0979 -0.764866,0.31718 -0.892906,0.725 -0.08946,0.41243 0.303395,0.61859 0.577394,0.7808 1.040576,0.618 2.295536,0.58723 3.420761,0.29331 0.875677,-0.22877 1.731499,-0.557 2.627488,-0.68473 0.276093,-0.0503 0.51049,-0.29895 0.548263,-0.60053 z m 2.141284,-11.63563 c -1.597899,-0.33478 -3.637281,0.80575 -5.433257,0.94554 -1.639196,-0.12259 -4.688803,0.21733 -4.111792,2.74186 2.067557,0.62573 3.923231,-1.65591 6.045025,-1.70086 2.02104,-1.01701 3.724929,3.05034 0.933073,2.31157 -1.972926,-0.62498 -3.830786,0.15716 -5.569915,1.09589 -2.236246,1.34161 -3.065622,-2.14732 -5.188397,-1.60056 -1.986739,-1.30362 -4.187131,0.01 -6.303149,0.36764 -2.127105,0.37044 -3.979281,-0.63626 -5.995583,-1.0788 -1.486776,-0.18657 -4.113915,-2.05977 -4.924947,-0.0771 -1.788426,1.52673 -4.078982,-0.76557 -6.149999,-0.31048 -2.465685,0.90259 -4.971699,-0.43598 -7.500663,-0.0748 -2.24412,0.0826 -4.484541,-0.74218 -6.61346,0.27774 -2.13547,0.12729 -4.393195,0.0209 -6.404558,-0.45788 1.816106,-0.91078 -4.109031,-0.68636 -1.246823,-1.70419 2.328171,0.074 3.772907,-2.03517 5.861428,-2.37891 2.85768,1.1139 -3.139091,1.15023 -1.154024,2.95859 1.76446,1.70594 2.767221,-2.07915 4.793087,-0.85295 2.110545,-0.9483 4.329954,1.46112 6.358118,0.13489 1.534255,0.95706 3.171237,-1.30723 4.895167,-0.32088 0.445274,-0.80351 3.225541,-1.24454 2.544769,-0.49905 -2.397764,-0.31877 -0.266416,2.1081 0.818012,0.49409 0.197056,-1.04788 3.37129,-2.51978 2.036661,-0.80566 1.990276,-0.83193 4.096124,-1.00299 6.11334,-2.04629 1.231137,-0.4682 2.031203,0.52666 0.391882,0.8227 -0.788589,0.83716 -2.560157,1.96999 -2.338162,2.75482 0.949186,0.61177 4.383171,2.14125 2.662925,-0.30344 -0.806278,-3.16769 3.47651,-2.06934 5.124209,-2.52411 1.654297,0.47413 3.668314,-0.47608 4.990818,0.96375 1.272072,0.0178 2.181534,-0.087 0.349371,0.2637 -1.987911,0.37788 -4.017902,-0.50991 -5.958673,-0.25412 0.207286,1.48263 2.90472,-0.56706 1.661903,1.56055 1.652411,1.59387 3.683781,-0.15691 5.538042,-0.16389 2.439002,-0.34631 4.902613,-0.34192 7.35173,-0.53941 0.886714,-0.0225 4.455004,0.18926 3.346493,-0.95856 -1.219031,-0.12043 -3.713094,-0.42058 -1.062459,-0.81375 2.11891,-1.01149 4.309096,0.48669 6.443398,-0.30701 0.835626,-0.25941 2.308169,-1.043 0.682071,-0.007 -1.026788,0.13462 -2.203708,1.6727 -0.34475,1.08456 2.951469,0.0612 -1.372063,0.36213 -2.212659,0.84763 l -0.428252,0.15411 0,0 z" />
  <path
     style="fill:#7c869a;fill-opacity:0.81621555;fill-rule:evenodd;stroke:#b5c4e7;stroke-width:0.27274403;stroke-linecap:round;stroke-linejoin:round;stroke-miterlimit:4;stroke-opacity:0.4162162"
     sodipodi:nodetypes="cccccccccccccccccccccccccccccccccccccccccccccccccccccccccccccccccccccccccccccccccccccccccccccccccccccccccccccccccccccccc"
     id="path41038"
     d="m 128.78981,102.42191 c -5.44685,-0.8058 -10.04112,2.88907 -15.29105,3.71551 -3.56373,1.07919 -5.30894,1.7771 -11.93247,2.79778 4.98834,0.55909 10.04662,-0.93476 14.79807,-2.39649 2.35975,0.87412 -7.00049,3.90715 -1.64077,4.04956 1.70803,-0.96081 3.97113,-3.86658 2.93155,0.30993 1.40806,3.64414 2.69726,-4.59476 4.58881,-0.49623 0.13474,-2.401 -1.20951,-6.95404 3.11981,-6.2848 -3.03713,4.19777 3.74707,-0.0297 3.42605,-1.69526 z m 10.84916,2.61994 c -1.84717,-4.45142 -7.07315,1.65993 -9.7219,-0.14926 0.44568,2.19291 9.36278,-1.14232 3.754,1.94411 -4.11391,1.93573 5.46036,0.36999 5.9679,-1.79485 z m -2.56955,4.46931 c -2.76433,1.55759 -6.80223,-1.7111 -8.60983,0.89674 2.71909,0.82875 6.96798,1.24144 8.60983,-0.89674 z m 4.85357,10.17155 c -1.05342,-2.01197 -4.13117,-6.20748 -6.78316,-4.94239 2.51299,0.37079 5.98405,4.32437 1.21478,2.17459 -5.5501,-2.61164 -11.1303,-4.9826 -17.15575,-3.33489 -5.75381,-1.69212 2.96251,2.16185 4.94499,0.41434 4.56571,-0.056 9.24681,3.31398 12.64503,5.92461 -2.32013,-4.80225 2.61961,1.92017 3.79863,-0.72922 0.20677,0.66168 0.89285,0.80307 1.33548,0.49296 z m -20.84178,1.07879 c -0.56739,-2.20603 -8.85735,-3.59539 -8.08655,-2.79332 4.07446,3.26391 -4.71799,-0.37054 -6.18867,-0.44308 -6.00964,-1.6741 3.88762,1.61197 5.42459,2.61996 4.06142,0.79676 4.67167,-2.62488 8.85063,0.61644 z m 9.84989,-1.54114 c -2.17827,2.55851 -7.73897,-2.92771 -2.14129,-0.1541 0.74732,0.26695 1.4839,-0.52181 2.14129,0.1541 z m -28.55042,-1.07881 c -2.36603,0.20891 -7.728287,-0.48366 -8.622277,0.38232 1.15535,-0.15635 6.768987,1.41925 9.199947,1.85623 1.49134,-1.32822 -2.28994,-2.35567 -0.57767,-2.23855 z m -7.280357,-8.16804 c -6.23595,-0.58906 -12.43404,0.36399 -18.700512,-0.15412 -2.564699,-0.20049 -6.327727,1.84966 -8.258534,0.2187 6.099165,-0.17701 12.109749,-1.44802 18.25118,-0.83515 2.937826,-1.2684 5.824896,0.12076 8.707866,0.77057 z m -2.14128,10.01743 c -1.81171,-1.55074 -15.240693,-2.59471 -11.395678,-1.77055 1.850688,0.40517 5.977062,1.53467 1.545789,0.99997 -6.273595,-1.09272 -12.466774,-1.68508 -18.76517,-2.67038 -2.076798,-0.28588 6.589847,0.74748 8.133227,2.70839 2.492077,0.48844 7.207334,-0.36263 8.583029,1.08124 -1.652395,-0.4062 -9.245353,1.01732 -3.803918,0.73013 2.65563,0.37447 6.172201,0.62441 6.798571,-0.90543 2.877114,0.33676 5.95903,-0.11788 8.90415,-0.17337 z m 49.392217,-15.87377 c -1.02453,1.74083 -1.88096,5.26169 1.71301,3.69874 2.61233,0.89186 2.28522,-5.03591 -0.91986,-3.44792 l -0.79315,-0.25082 0,0 z m 2.71228,16.49022 c 1.33124,-1.35981 -1.1926,-4.81197 -1.53898,-2.29008 1.09328,0.43011 -1.72966,3.93548 1.53898,2.29008 l 0,0 z M 69.262205,103.03837 c -5.988227,0.57798 -12.088121,0.36122 -17.701254,3.08228 -3.601801,0.0371 -8.190398,7.09652 -2.426785,7.08925 1.291728,-1.45915 -2.859433,-4.56708 1.276594,-3.91376 1.428702,4.16729 1.995159,-3.61937 4.469948,0.28112 3.536742,1.6711 -2.693586,-2.48106 1.046993,-2.09372 2.179564,-0.0105 -0.565044,3.25574 2.790725,2.19099 -1.715076,2.46409 -2.887341,2.00688 0.868206,1.75966 4.149532,0.67169 -3.11686,-2.38435 2.109718,-1.15245 2.766067,2.81861 10.212087,4.34576 11.411753,5.81296 -6.616295,1.89888 -10.966738,-5.01374 -17.407336,-4.11771 -3.125527,1.2356 -2.284291,-3.29387 -4.847909,-0.2011 1.201146,3.13866 7.875209,3.01109 10.582583,3.46979 1.722174,-2.20977 0.442148,3.21336 -2.165876,1.20062 -1.898202,-0.65174 -7.368219,-1.75341 -7.088651,-0.64025 3.468375,-0.11915 11.66164,0.91027 11.247849,4.7865 -3.821744,-2.40499 -8.568484,-3.59685 -13.206464,-3.78883 -2.757856,-2.18002 -7.81808,-0.54858 -9.224999,-3.09294 -1.514697,3.73832 -1.713622,-0.79617 -1.403561,-2.22877 -1.705862,-0.89305 -1.366925,-2.48977 -4.449269,-2.12496 0.05242,-0.0658 5.477977,-1.87329 6.389092,0.6395 2.771901,0.36722 3.664151,1.78953 5.031069,-1.56418 3.900475,-4.12814 10.366604,-5.23913 15.772559,-5.73046 2.317785,-1.6e-4 4.619497,0.0535 6.925015,0.33646 z m 38.828555,17.26079 c -1.66,-1.61514 -4.7635,-2.69718 -1.77063,-0.35334 -0.61999,1.59718 3.08302,2.35559 1.77063,0.35334 z m -22.412053,-7.39749 c -1.842544,2.91554 -10.552016,3.51908 -9.899848,0.26303 3.602989,1.53488 6.251538,-0.004 9.899848,-0.26303 z m -38.257564,4.62343 c 4.025814,-0.0452 11.744501,2.10136 12.120892,2.72363 -0.670694,0.49705 -9.11196,1.46205 -3.026569,-0.0133 -3.087613,-0.57545 -5.96518,-2.32316 -9.094323,-2.71022 z m -3.711549,2.00349 c -3.63226,-3.02181 -12.195795,-3.28024 -14.755497,-2.99296 4.962718,2.51615 10.745508,2.07712 15.610821,4.811 -0.237023,-0.64365 -0.262123,-1.35137 -0.855324,-1.81804 z m 8.245026,0.65321 c -1.469019,-1.63402 -4.517529,-0.56853 -1.158227,0.11352 0.320706,0.66813 1.239094,1.09389 1.158227,-0.11352 z M 29.646674,108.41247 c -3.165157,1.54281 -7.612025,-0.9477 -10.497857,-0.65384 -1.51386,1.49779 -4.082167,-1.52787 -5.731325,2.01486 -1.378098,-1.27982 4.799124,-4.9387 6.174183,-3.16839 3.086857,0.52345 6.695229,0.55568 10.054999,1.80737 z m 5.450814,12.20524 c -1.696609,-1.20801 -3.086813,1.05106 -3.835762,-0.65387 -1.955758,3.22718 -3.375815,-0.98407 -3.936686,0.54488 -2.741696,1.49772 -5.873405,-1.1135 -7.635236,-1.44546 3.024274,3.40658 7.773449,2.44317 11.874743,2.64418 1.254918,0.10036 2.628108,-0.0186 3.532941,-1.08973 z m -16.554313,-2.72438 c -2.867545,-0.33017 -4.797567,0.47247 -2.088362,2.95051 0.60661,-1.59742 4.34059,-3.08561 3.916861,-2.73375 -1.720349,-0.31122 -0.734916,0.3477 -1.828499,-0.21676 z m -5.854573,2.07051 c -2.155927,-4.80575 -8.278093,0.63372 -9.874246,-2.60129 -3.676007,0.38713 0.843937,0.41659 -2.32496,2.57979 -0.368344,2.40308 4.854441,-0.38924 6.004238,-0.0984 0.192844,-2.16585 4.882306,-0.18687 6.194968,0.11991 z" />
  <path
     style="fill:url(#linearGradient2951);fill-opacity:1;fill-rule:nonzero;stroke:none"
     sodipodi:nodetypes="cccccccccccccc"
     id="path4365"
     d="M 10.432506,72.600851 C 24.416267,48.527684 51.08762,34.439603 77.2304,36.10613 c 23.61685,1.041678 46.57731,14.816877 59.21849,36.494721 -4.32457,1.622938 -8.73325,-0.6851 -13.22996,0.06774 -4.42356,0.496039 -8.62111,-0.115584 -12.85652,-0.384707 -2.76178,1.47918 -7.11409,2.026703 -8.4233,-1.611292 -2.742017,3.090158 -7.941077,2.465713 -11.489787,1.829101 -3.414236,-0.663296 -5.498997,3.790556 -10.413819,0.138527 -3.679252,-1.978673 -8.708126,0.396731 -12.93974,0.246324 -2.789653,1.647657 -6.29557,-2.716738 -9.550725,0.393446 -3.950499,2.51063 -8.704851,-3.221812 -12.241361,0.408019 -3.998304,1.250388 -8.002667,-3.149413 -12.293894,-0.871559 -4.3094,-1.500866 -8.383971,1.83059 -12.548735,0.07008 -3.415056,-2.279173 -7.240068,3.556058 -10.028543,-0.285713 z" />
  <path
     style="fill:#beb5b1;fill-opacity:0.75675677;fill-rule:evenodd;stroke:#505050;stroke-width:0.35539371;stroke-linecap:butt;stroke-linejoin:miter;stroke-miterlimit:4;stroke-opacity:0.71351348"
     sodipodi:nodetypes="ccc"
     id="path35748"
     d="m 43.439253,65.412764 c 0.719495,1.199138 3.714149,-0.217396 3.331043,-1.089753 -0.669546,-1.524627 -3.980743,0.0072 -3.331043,1.089753 z" />
  <path
     style="fill:#b5aca8;fill-opacity:0.5081081;fill-rule:evenodd;stroke:#505050;stroke-width:0.35539371;stroke-linecap:butt;stroke-linejoin:miter;stroke-miterlimit:4;stroke-opacity:0.71351348"
     sodipodi:nodetypes="ccc"
     id="path36508"
     d="m 62.527156,59.411576 c 0.328352,1.384071 3.584946,1.07074 3.479079,0.112085 -0.185004,-1.675437 -3.775576,-1.361873 -3.479079,-0.112085 z" />
  <path
     style="fill:#c0bbb8;fill-opacity:0.24324323;fill-rule:evenodd;stroke:#434343;stroke-width:0.29121658;stroke-linecap:butt;stroke-linejoin:miter;stroke-miterlimit:4;stroke-opacity:0.71351348"
     sodipodi:nodetypes="ccc"
     id="path36510"
     d="m 65.982665,45.675703 c 0.598919,1.057281 3.091686,0.289275 2.772791,-0.46232 -0.557348,-1.313583 -3.313591,-0.492387 -2.772791,0.46232 z" />
  <path
     style="fill:none;stroke:#494949;stroke-width:0.27935597;stroke-linecap:butt;stroke-linejoin:miter;stroke-miterlimit:4;stroke-opacity:0.71351348"
     sodipodi:nodetypes="ccc"
     id="path36512"
     d="m 39.146338,61.658349 c 1.11752,0.878665 3.589027,-1.651884 2.914452,-2.345579 -1.178972,-1.212363 -3.923553,1.552154 -2.914452,2.345579 z" />
  <path
     style="fill:#b2afa8;fill-opacity:1;fill-rule:evenodd;stroke:none"
     sodipodi:nodetypes="ccc"
     id="path41062"
     d="m 81.104114,65.587388 c 0.401673,1.740102 4.024218,1.232803 3.881534,0.02342 -0.249357,-2.11364 -4.244229,-1.594693 -3.881534,-0.02342 z" />
  <path
     style="fill:#a7a49e;fill-opacity:1;fill-rule:evenodd;stroke:none"
     sodipodi:nodetypes="ccc"
     id="path41822"
     d="m 60.294957,52.427588 c 0.543111,1.028471 2.853466,0.09877 2.566103,-0.639016 -0.502236,-1.289429 -3.056529,-0.289679 -2.566103,0.639016 z" />
  <path
     style="fill:#c0bbb8;fill-opacity:0.24324323;fill-rule:evenodd;stroke:#434343;stroke-width:0.37027067;stroke-linecap:butt;stroke-linejoin:miter;stroke-miterlimit:4;stroke-opacity:0.71351348"
     sodipodi:nodetypes="ccc"
     id="path42582"
     d="m 51.069377,54.513681 c 0.763237,1.083051 2.989468,-0.418651 2.548376,-1.214669 -0.7709,-1.391195 -3.237569,0.236696 -2.548376,1.214669 z" />
  <path
     style="fill:#c0bbb8;fill-opacity:0.16216215;fill-rule:evenodd;stroke:#434343;stroke-width:0.2263889;stroke-linecap:butt;stroke-linejoin:miter;stroke-miterlimit:4;stroke-opacity:0.71351348"
     sodipodi:nodetypes="ccc"
     id="path43342"
     d="m 49.991667,46.973951 c 0.673951,0.371859 1.982285,-0.879436 1.568802,-1.179586 -0.722638,-0.524581 -2.177354,0.843806 -1.568802,1.179586 z" />
  <path
     style="opacity:0.51851849;fill:url(#linearGradient2923);fill-opacity:1;fill-rule:evenodd;stroke:url(#linearGradient2925);stroke-width:0.1157096;stroke-linecap:butt;stroke-linejoin:miter;stroke-miterlimit:4;stroke-opacity:0.6756757"
     id="path44102"
     d="m 52.358379,66.130093 c 0.551596,-0.0072 0.784115,0.73104 1.009419,0.980782 0.36242,0.352128 0.575091,0.393348 1.00941,0.653848 0.471669,0.282896 0.672862,0.35595 1.110356,0.544876 0.176859,0.07636 0.836732,0.02952 1.11034,0 0.850877,-0.09186 0.137897,-0.173681 0.605651,-0.762829 0.218472,-0.27517 0.540392,-0.750078 0.70658,-0.980781 0.215373,-0.29893 0.983181,-0.2805 1.413178,-0.326924 0.900776,-0.09724 0.315313,0.595706 0.403759,0.762829 0.222719,0.420786 -0.882251,0.18767 -1.312223,0.326924 -0.350211,0.113431 -0.375477,0.810733 -0.504714,1.089753 -0.389572,0.841168 0.0113,0.02432 0.302822,0.653857 0.238178,0.514262 0.914655,-0.296238 1.009418,-0.326924 0.789741,-0.255789 0.49336,0.236723 0.908472,0.435896 0.171233,0.08219 -0.71416,0.48188 -0.807534,0.544876 -0.400477,0.270218 0.943262,-0.05823 1.413169,-0.108971 0.792733,-0.0856 0.484916,-0.349015 0.908481,-0.653857 0.597356,-0.429938 0.07239,0.02234 0.70658,0.217952 0.428468,0.132166 0.770202,-0.415752 1.00941,-0.544877 0.318139,-0.171725 1.149053,0 1.514115,0 0.244944,0 -0.134589,-0.508546 -0.201883,-0.762828 -0.0246,-0.09292 -0.849514,-0.715095 -0.908473,-0.76282 -0.706638,-0.572162 -0.496959,0.459861 -0.70658,0.653848 -0.513008,0.47472 -0.405704,0.09733 -0.908473,0.217952 -0.302821,0.07268 0.13459,-0.653857 0.201884,-0.980781 0.187871,-0.912751 -0.05527,-0.208702 -0.201884,-0.762829 -0.108193,-0.408808 -0.740223,0.290603 -1.110356,0.435905 -0.866801,0.340293 -0.407723,-0.165068 -0.807518,-0.326924 -0.368753,-0.149286 0.733134,-0.313726 1.11034,-0.435905 0.457905,-0.148298 0.741295,-0.156311 1.312231,-0.217943 0.514338,-0.05554 0.76268,0.299405 1.110356,0.435895 0.655634,0.257387 0.629737,-0.203955 1.009419,-0.326924 0.29712,-0.09623 0.363982,-0.74413 0.706572,-0.653848 0.321313,0.120977 -0.336465,0.726499 -0.504697,1.089744 -0.204502,0.441585 0.857767,-0.296516 0.908473,-0.326924 0.37767,-0.226521 0.737589,-0.155907 1.312223,-0.217943 0.190489,-0.02055 0.857767,0.562893 1.00941,0.653848 0.49784,0.29858 0.486288,0.524984 0.807535,0.8718 0.313941,0.338939 0.391799,0.634486 0.605642,0.980773 0.233641,0.378363 0.146267,0.81617 0.201884,1.416686 0.0374,0.404106 -0.750039,-0.101256 -1.110356,-0.217953 -0.361381,-0.117047 -0.367747,-0.794044 -0.504705,-1.089753 -0.208499,-0.450198 -0.341443,-0.737257 -0.504697,-1.089753 -0.227764,-0.491759 -0.323674,-0.986505 -0.605651,-1.019309 -0.337611,0.03122 0.201875,0.765036 0.30283,1.128281 0.264989,0.95363 -0.704062,0.434344 -0.706597,0.435905 -0.326616,0.201497 -0.336465,-0.726499 -0.504697,-1.089753 -0.338925,-0.731793 -0.706331,0.653624 -0.706597,0.653848 -0.04023,0.03724 0.778413,0.735328 0.807535,0.762829 0.292731,0.276525 0.728621,0.393312 1.009401,0.544876 0.611112,0.329877 0.279742,0.452989 0.60566,0.980782 0.04546,0.07358 -0.973748,0.632457 -1.009419,0.653848 -0.4442,0.266422 -0.997492,-0.08587 -1.211293,-0.108972 -0.11436,-0.01238 0.865487,-0.622911 0.908472,-0.653857 0.313002,-0.225274 -0.736026,-0.258356 -1.110356,-0.217952 -0.258274,0.0279 -0.799265,0.431454 -1.009394,0.544876 -0.43451,0.234543 -0.660603,0.290236 -1.110356,0.435905 -0.08358,0.0271 -1.100117,-0.205947 -1.211294,-0.217952 -0.136384,-0.01471 -0.84628,0.350378 -1.110356,0.435904 -0.531591,0.172175 -1.050865,-0.161524 -1.312231,-0.217952 -0.474495,-0.102458 -0.830848,-0.24478 -1.211277,-0.326924 -0.312529,-0.06747 -0.725256,-0.391491 -1.009419,-0.544877 -0.414996,-0.224017 -0.676345,-0.29534 -1.110348,-0.435904 -0.429988,-0.139263 -0.736616,-0.289177 -1.110356,-0.435896 -0.385209,-0.151233 -1.098854,0 -1.514115,0 -0.224324,0 -0.68144,-0.643727 -0.807527,-0.762829 -0.488481,-0.461441 -0.673211,-1.299478 -0.605651,-1.63463 z m 23.151177,2.833355 c 0.08747,-0.466134 -0.938284,-0.797257 -1.146044,-0.980773 -0.348191,-0.307552 -0.651428,-0.351643 -1.009393,-0.544876 -0.519857,-0.280617 -0.984187,0.253367 -1.211303,0.326924 -0.401041,0.129887 -0.762081,0.299172 -1.110356,0.435896 -0.632306,0.248234 -0.333723,0.411768 -0.706574,0.871809 -0.423049,0.521952 0.04413,1.054859 0.201876,1.198725 0.289632,0.07914 0.336464,-0.435905 0.504698,-0.653848 0.122156,-0.158249 0.187306,-0.14444 0.706581,-0.544877 0.283182,-0.218365 0.74964,0.708123 0.807535,0.76282 0.313509,0.296148 0.533452,0.503926 0.807543,0.762829 0.263493,0.248926 0.779069,0.241308 1.175589,0.326924 0.337371,-0.135207 -0.23349,-0.508546 -0.368071,-0.76282 -0.167451,-0.316354 -0.551862,-0.595795 -0.807518,-0.871809 -0.637666,-0.688393 0.235659,-0.678442 0.302813,-0.871801 0.08981,-0.258544 1.090642,0.428171 1.110347,0.435905 0.679936,0.326475 -0.222561,-0.03984 0.742277,0.108972 z m 34.788924,-3.051307 c 0.2988,0.117307 0.87539,0.859158 1.11035,1.089753 0.32242,0.316444 0.53841,0.508591 0.80754,0.762829 0.38824,0.366744 -0.37998,1.128084 -0.40377,1.198725 -0.0863,0.256103 -0.37316,1.033423 -0.40377,1.198733 -0.0218,0.117631 -1.14253,0.199622 -1.31223,0.217944 -0.58613,0.06326 -0.94428,-0.138501 -1.31224,-0.217944 -0.52575,-0.113529 -0.78126,0.01615 -1.21128,0.108972 -0.61655,0.133126 -0.75219,-0.06927 -1.21129,-0.217952 -0.43674,-0.141453 -0.59322,0.116445 -1.11035,0.217952 -0.41948,0.08237 -0.89479,-0.224413 -1.2113,-0.326924 -0.26966,-0.0873 -1.0213,0.175638 -1.41316,0.217952 -0.48562,0.0524 -1.08279,-0.07331 -1.41319,-0.10898 -0.3418,-0.03688 -0.73971,-0.217953 -1.312227,-0.217953 -0.57718,0 -0.90293,-0.107778 -1.41317,-0.217943 -0.61889,-0.133637 -0.72958,-0.286422 -1.11034,-0.435905 -0.49138,-0.192901 -0.4097,-0.505496 -0.7066,-0.871801 -0.4345,-0.536119 0.24424,-0.87888 0.30283,-1.089753 0.14928,-0.53724 0.60965,-0.511911 0.90847,-0.76282 0.38391,-0.322375 0.785,-0.06299 1.21129,-0.10898 0.32762,-0.03535 1.041407,0.02925 1.312247,0 0.36157,-0.03903 0.74327,-0.401226 1.00938,-0.544877 0.53464,-0.288584 0.59202,0.191744 1.00942,0.326924 0.66573,0.21562 0.76428,-0.07322 1.2113,-0.217952 0.29446,-0.09537 0.90542,-0.293905 1.21129,-0.326924 0.48887,-0.05276 1.0521,-0.06999 1.41317,-0.108972 0.0129,-0.0018 0.81276,-0.584975 0.90846,-0.653857 0.38066,-0.273959 0.69043,-0.29989 1.11035,-0.435896 0.42758,-0.138482 0.92605,-0.108972 1.41318,-0.108972 0.82112,0 0.42112,0.397808 0.80754,0.76282 0.0587,0.05545 -1.13125,0.198411 -1.31225,0.217953 -0.4522,0.04881 -0.89555,-0.05312 -1.41316,-0.108972 -0.32043,-0.03463 -0.66112,0.624526 -0.80754,0.76282 -0.29663,0.280231 -0.7425,0.225714 -1.2113,0.326924 -0.43466,0.09385 -0.9207,0.108981 -1.41316,0.108981 -0.49476,0 -0.71579,0.281002 -1.11035,0.435905 -0.46973,0.184395 -0.92855,0.04145 -1.31222,0 -0.49245,-0.05321 -0.69225,-0.04513 -1.11037,0 -0.32682,0.03526 -0.6744,0.268961 -1.211287,0.326924 -0.39149,0.04226 -0.92454,-0.05626 -1.41318,-0.108981 -0.50185,-0.05419 -0.35747,0.771873 -0.5047,1.089753 -0.11548,0.249356 0.89387,0.482499 1.00943,0.544876 0.445,0.240232 0.76375,0.158743 1.312197,0.217953 0.59677,0.06442 0.80621,0.195718 1.2113,0.326924 0.32738,0.106029 0.8706,-0.401073 1.11036,-0.544877 0.31816,-0.190819 0.60564,0.435905 0.90847,0.653849 0.2471,0.177845 1.20224,0 1.51412,0 0.53604,0 0.81596,-0.110793 1.31224,-0.217944 0.35431,-0.07654 0.81333,0.198034 1.21127,0.326924 0.25849,0.08371 0.98094,-0.182187 1.31224,-0.217952 0.28678,-0.03095 0.80877,0.317512 1.11035,0.435905 0.49471,0.194211 0.98327,-0.146926 1.31224,-0.217953 0.59203,-0.127832 0.28643,-0.61846 0.50468,-1.089753 0.095,-0.205067 -0.60911,-0.75155 -0.70658,-0.8718 -0.27341,-0.337341 -0.54673,-0.51647 -0.80751,-0.762829 -0.30981,-0.292649 0.16174,-0.407453 0.30281,-0.762829 z m 14.63644,0.762829 c -0.40038,-0.378211 0.60565,0.944451 0.90848,1.416677 0.22109,0.344788 0.26981,0.801079 0.40375,1.198725 0.14565,0.432405 -0.0761,1.25797 -0.10094,1.525657 -0.0374,0.404116 -0.67294,-0.363254 -1.00941,-0.544876 -0.046,-0.02485 -0.7188,-0.679007 -0.80752,-0.762829 -0.2389,-0.22566 -0.53837,0.363254 -0.80753,0.544877 -0.22346,0.150783 -0.64926,-0.801061 -0.70658,-0.871801 -0.23552,-0.290603 -0.53836,0.508556 -0.80755,0.762829 -0.72135,0.681421 -0.60718,-0.749182 -0.70657,-0.871801 -0.54473,-0.352863 -0.76965,0.727047 -0.80754,0.76282 -0.32813,0.309966 -0.87039,-0.140232 -1.11035,-0.217943 -0.42557,-0.137837 -0.66736,-0.360248 -1.00939,-0.544877 -0.39786,-0.214758 -0.46842,-0.577931 -0.7066,-0.871809 -0.28952,-0.357207 -0.46252,-0.570664 -0.70658,-0.871801 -0.6177,-0.762138 0.49057,-0.635535 0.5047,-0.653848 0.14842,-0.192273 0.6904,0.851837 0.70659,0.8718 0.30152,0.372021 0.38601,0.625092 0.60564,0.980782 0.17495,0.283317 0.94886,0.270262 1.21131,0.326924 0.38308,0.08273 0.90516,-0.207428 1.24084,-0.01319 0.19296,0.02082 1.01422,0.213089 1.18173,0.231178 0.51819,0.0559 0.74808,-0.176903 1.21128,-0.326933 0.3486,-0.112902 0.60566,0.435905 0.90848,0.653857 0.47962,0.345193 0.67569,0.162098 0.90847,0.217953 0.36721,0.08811 -0.13461,-0.799159 -0.20189,-1.198734 -0.0496,-0.294659 -0.46788,-0.757661 -0.60564,-0.980772 -0.25086,-0.406224 -0.46348,-0.571866 -0.70659,-0.871801 -0.62977,-0.777014 0.26403,-0.342061 0.50471,-0.653857 0.18529,-0.240052 0.33647,0.508555 0.5047,0.762829 z m -1.2113,-1.961554 c 0.35223,0.32967 -0.47104,0.79915 -0.70658,1.198725 -0.1253,0.21256 -0.32084,0.432989 -0.40375,0.544885 -0.15304,0.206495 -0.47108,-0.14531 -0.7066,-0.217961 -0.31862,-0.09828 -0.60564,0.290603 -0.90845,0.435905 -0.19826,0.09513 -0.2019,-1.21021 -0.2019,-1.416677 0,-0.334901 0.60564,0.145301 0.90848,0.217952 0.92562,0.222062 0.32378,-0.174785 0.60564,-0.326924 0.19269,-0.104019 0.26919,-0.363254 0.40377,-0.544876 0.33868,-0.457045 0.53127,-0.491643 0.70658,-0.653858 0.19456,-0.180035 0.34463,0.392971 0.30281,0.762829 z m -3.59818,2.115667 c -0.31229,0.316515 -0.9105,0.281792 -1.34792,0.499735 -0.28819,0.143606 -0.33646,-0.581197 -0.50471,-0.871792 -0.21771,-0.376084 0.77868,-0.470153 1.00941,-0.544885 0.84258,-0.272882 0.64481,0.551301 0.84322,0.916942 z m 8.14053,2.570269 c 0.27306,-0.08847 0.56938,1.141588 0.7066,1.416677 0.16655,0.333914 -0.67296,-0.217952 -1.00943,-0.326924 -0.59182,-0.19168 -0.18057,-0.877291 -0.20188,-0.980781 -0.0372,-0.180806 0.33648,-0.07268 0.50471,-0.108972 z M 57.910135,58.065926 c -0.109714,-0.533078 -1.010798,-0.05464 -1.514107,-0.108972 -0.403293,-0.04352 -0.600465,-0.648249 -0.807526,-0.871801 -0.191902,-0.207167 -0.355106,-1.023625 -0.403776,-1.198733 -0.05294,-0.190551 -1.03195,-0.187688 -1.312231,-0.217953 -0.09156,-0.0099 -0.886631,0.478614 -1.009394,0.544877 -0.443394,0.239343 -0.717734,-0.516568 -0.908481,-0.653849 -0.562043,-0.404518 -0.690008,0.22348 -1.009393,0.326925 -0.387761,0.125588 -0.795958,0.334075 -1.110356,0.435904 -0.678465,0.219738 -0.09525,0.822524 -0.100946,0.871801 -0.05494,0.474092 0.87827,0.124252 1.312239,0.217952 0.341335,0.07367 -0.0822,1.206648 -0.100937,1.307697 -0.0689,0.371571 -0.166653,0.818252 -0.201901,1.198733 -0.03366,0.363245 0.672946,-0.07268 1.009419,-0.108971 0.395706,-0.04271 0.756995,-0.158016 1.312231,-0.217953 0.653706,-0.07061 0.737556,-0.289553 1.110357,-0.435904 0.32015,-0.125679 0.597273,-0.564222 0.807518,-0.762829 0.544107,-0.513993 -0.280548,-1.009601 -0.302822,-1.089753 -0.08317,-0.299298 -0.471053,0.363254 -0.70658,0.544876 -0.290288,0.223839 -0.533403,0.755821 -0.908473,0.980781 -0.713445,0.427902 -0.528998,-0.356928 -0.807534,-0.544876 -0.142651,-0.09626 0.201892,-0.290603 0.302838,-0.435905 0.202872,-0.292048 0.672929,0.07268 1.009393,0.108981 0.241436,0.02611 -0.26917,-0.435905 -0.403759,-0.653857 -0.202332,-0.32766 -0.764533,-0.23046 -1.211294,-0.326924 -0.08715,-0.01884 1.060864,-0.212605 1.110356,-0.217953 0.495622,-0.05348 0.819038,-0.266512 1.211294,-0.435896 0.282792,-0.122125 0.67032,0.633221 0.807518,0.762829 0.221698,0.209411 0.410683,0.88674 0.504714,1.089753 0.28846,0.622839 0.439322,0.316193 0.908464,0.653848 0.247087,0.177837 1.202226,0 1.514115,0 0.237921,0 -0.06732,-0.508555 -0.100946,-0.762828 z m -7.46963,0.435904 c 0.159356,0.269697 -1.299083,0.601063 -1.413169,0.653849 -0.401748,0.185884 -1.014771,-0.06595 -1.413178,-0.108972 -0.448397,-0.04845 -1.058678,-0.100385 -1.110339,-0.435905 -0.05976,-0.268638 0.982682,-0.302241 1.211277,-0.326924 0.120726,-0.01301 -0.201875,-0.145302 -0.302813,-0.217952 -0.292291,-0.210371 -0.815688,0.12881 -1.009418,-0.288396 -0.01413,-0.208792 0.944417,-0.653391 1.009418,-0.692377 0.417846,-0.250621 0.790431,-0.183417 1.110348,-0.217952 0.374313,-0.04038 -0.348715,0.837678 -0.201876,1.198725 0.187847,0.290899 0.712706,-0.594423 0.908456,-0.544877 0.449611,0.145589 -0.134589,0.653857 -0.201875,0.980781 -0.102184,0.496443 1.08721,-0.411741 1.413169,0 z m 38.378738,-1.620668 c 0,0.172901 0,0.826077 0,1.23291 0,0.240797 -0.830976,0.07707 -0.856516,0.07707 -0.23433,0 -0.42825,-0.205481 -0.64238,-0.308226 -0.26893,-0.129034 -0.56369,0.199559 -0.85651,0.231169 -0.28313,0.0306 -0.59655,-0.247149 -0.78513,-0.308225 -0.339865,-0.110075 -0.521328,-0.07707 -0.856513,-0.07707 -0.296712,0 -0.634424,-0.02907 -0.856512,-0.07707 -0.651993,-0.140779 -0.144612,-0.312227 -0.214134,-0.462347 -0.149358,-0.322455 0.665308,-0.07707 0.999271,-0.07707 0.171565,0 -0.19034,-0.308225 -0.285509,-0.462347 -0.06275,-0.101614 -0.932193,0.06209 -1.070646,0.07707 -0.361897,0.03903 -0.737174,-0.04872 -0.999263,-0.07707 -0.151693,-0.01642 -0.579878,-0.26391 -0.785136,-0.308225 -0.270807,-0.0585 -0.646733,0.07707 -0.999263,0.07707 -0.410183,0 -0.615067,-0.03553 -0.999262,-0.07707 -0.25052,-0.02701 -0.429382,0.634046 -0.499644,0.770572 -0.204734,0.39787 -0.349404,0.214148 -0.785136,0.308226 -0.271082,0.0585 -0.74644,-0.17658 -0.999262,-0.231169 -0.281546,-0.06074 -0.540917,-0.358669 -0.713753,-0.462347 -0.241528,-0.144853 -0.528425,-0.231313 -0.785137,-0.385282 -0.242167,-0.145248 -0.787239,-0.123516 -1.070637,-0.154113 -0.330656,-0.03571 -0.60197,-0.07707 -0.999271,-0.07707 -0.318371,0 -0.538523,0.228352 -0.785128,0.308225 -0.256122,0.083 -0.448448,0.322752 -0.642394,0.462347 -0.264051,0.190039 -0.227491,0.491176 -0.356877,0.770573 -0.133941,0.289203 0.52653,0.378955 0.642386,0.462337 0.26218,0.188702 0.803919,-0.127347 0.927887,-0.154112 0.306794,-0.06622 0.537309,-0.162251 0.856504,-0.231169 0.642618,-0.138752 0.373232,0.179083 0.642402,0.308225 0.0551,0.02647 -0.632895,0.531427 -0.642402,0.539403 -0.211201,0.177334 -0.593268,0.117981 -0.927888,0.154113 -0.34869,0.03759 -0.719878,0 -1.070637,0 -0.511736,0 -0.524668,-0.205974 -0.785137,-0.308234 -0.236806,-0.09297 -0.165888,-0.664284 -0.214126,-0.924685 -0.08429,-0.45499 0.207594,-0.616316 0.285502,-0.847629 0.12858,-0.381728 0.325992,-0.307947 0.57101,-0.539394 0.232402,-0.21954 0.5533,-0.165705 0.85652,-0.231178 0.307667,-0.0664 0.529398,-0.111089 0.927887,-0.154113 0.348699,-0.03759 0.719878,0 1.070646,0 0.427953,0 0.474187,-0.408933 0.642378,-0.61645 0.132179,-0.163076 0.275985,-0.595913 0.356868,-0.770572 0.147721,-0.318921 0.454855,-0.245516 0.713778,-0.385291 0.64945,-0.350567 0.136085,0.367337 0.14275,0.385291 0.05859,0.158114 -0.384785,0.623099 -0.428268,0.693516 -0.215456,0.348897 0.241602,0.717257 0.285518,0.847619 0.10983,0.32609 0.428318,0.308279 0.642369,0.462347 0.251966,0.181344 0.621617,0.07707 0.856512,0.07707 0.1583,0 0.481268,-0.454612 0.571019,-0.539403 0.243497,-0.23002 0.484376,-0.210819 0.785136,-0.308225 0.274481,-0.08892 0.537393,0.290083 0.713753,0.38529 0.270284,0.145903 0.750139,-0.05016 0.999263,-0.07707 0.208075,-0.02243 0.556557,0.218491 0.785136,0.308234 0.111809,0.04388 0,-0.256857 0,-0.38529 0,-0.277826 -0.285493,-0.462338 -0.428243,-0.693507 -0.352588,-0.570978 0.40267,-0.496829 0.499618,-0.61646 0.143482,-0.177028 0.671824,0.362653 0.713753,0.385282 0.275994,0.148971 0.533112,0.23413 0.785153,0.385291 0.281662,0.168926 0.498647,0.21544 0.785137,0.308225 0.338492,0.109635 0.526521,0.110784 0.927882,0.154112 0.23793,0.02566 -0.0476,-0.513714 -0.07139,-0.770572 -0.0192,-0.206835 0.05909,-0.510538 0.07139,-0.61645 0.0337,-0.290604 0.42826,0.359602 0.64238,0.539394 0.23562,0.197836 0.43198,0.362716 0.6424,0.539403 0.31958,0.26836 0.44683,-0.214399 0.64237,-0.308225 0.23517,-0.112839 0.28551,-0.462347 0.42827,-0.693516 0.0913,-0.147796 0.505256,0.54546 0.570996,0.61646 0.23794,0.256875 0.37655,0.40651 0.571,0.61645 0.23497,0.253672 0.47547,0.308001 0.71378,0.462347 0.16867,0.109259 0.35146,0.621386 0.42824,0.770572 0.26897,0.52267 -0.1016,0.292506 -0.21413,0.616451 -0.0361,0.103741 -0.40189,-0.650843 -0.42825,-0.693507 -0.15009,-0.243022 -0.40183,-0.379584 -0.57102,-0.539403 -0.17095,-0.161488 -0.6075,-0.177406 -0.856506,-0.231169 -0.36058,-0.07788 -0.4319,0.362662 -0.64238,0.539394 -0.29334,0.246324 -0.45,0.143399 -0.85651,0.231178 -0.22795,0.04917 -0.60947,-0.177836 -0.8565,-0.231178 -0.14192,-0.03069 -0.0476,0.308234 -0.0714,0.462347 -0.0423,0.274049 0.42825,0.308225 0.64237,0.462338 0.17444,0.125535 0.71255,-0.184539 0.85652,-0.231169 0.47108,-0.152569 0.50547,-0.272856 0.71377,-0.385282 0.25808,-0.139317 0.35214,-0.08452 0.642376,-0.154121 0.12508,-0.02997 0.23792,0.102744 0.35689,0.154121 z m 13.490067,1.84937 c 0.33497,-0.08039 -0.38068,-0.61646 -0.57102,-0.924685 -0.17192,-0.278418 -0.32978,-0.406879 -0.49962,-0.61646 -0.19713,-0.24321 -0.47579,-0.25683 -0.71376,-0.385281 -0.34789,-0.187796 -0.50776,-0.05482 -0.713767,-0.07707 -0.18657,-0.0201 0.1215,0.84822 0.14275,0.924693 0.143577,0.516712 -0.29391,0.47595 -0.42824,0.693507 -0.13153,0.213 -0.61438,0.301496 -0.78516,0.385291 -0.3057,0.150021 -0.50971,0.156293 -0.85651,0.231169 -0.28617,0.06182 -0.72837,-0.22208 -0.92789,-0.308225 -0.28517,-0.123158 -0.56184,-0.114598 -0.92788,-0.154113 -0.43544,-0.04702 -0.63468,-0.190156 -0.99927,-0.308234 -0.24978,-0.08093 -0.46836,-0.252829 -0.71375,-0.385282 -0.27601,-0.148989 -0.52275,-0.347785 -0.71375,-0.462347 -0.28497,-0.1709 -0.30231,-0.37298 -0.49964,-0.616459 -0.18339,-0.226252 -0.4538,-0.326602 -0.64238,-0.462338 -0.43484,-0.312963 0,-0.544509 0,-0.693516 0,-0.342689 0.62384,0.132704 0.92788,0.231169 0.12176,0.03948 0.27593,0.795982 0.28551,0.847628 0.0406,0.21876 0.62142,0.255207 0.78513,0.308234 0.67634,0.219048 0.34661,-0.213834 0.49963,-0.308234 0.0412,-0.02539 -0.49028,-0.604921 -0.49963,-0.61645 -0.15958,-0.196903 -0.48695,-0.350468 -0.64239,-0.462347 -0.42311,-0.304529 -0.0828,-0.402105 -0.14274,-0.693516 -0.0638,-0.310146 0.57464,0.139882 0.85652,0.231178 0.42022,0.136104 0.59504,-0.116805 0.78512,-0.154122 0.0911,-0.01785 0.32972,-0.711918 0.35689,-0.770563 0.10016,-0.216293 0.54856,-0.296121 0.71376,-0.385291 0.25437,-0.137298 0.83849,0.05967 0.99926,0.07707 0.59579,0.06433 0.16516,0.534917 0.21414,0.693515 0.014,0.04558 -0.8513,0.07707 -0.99927,0.07707 -0.34475,0 -0.23151,0.556119 -0.28551,0.847628 -0.006,0.02898 0.38408,0.621987 0.42825,0.693516 0.11276,0.182601 -0.38066,0.154113 -0.571,0.231169 -0.23682,0.09587 -0.20225,-0.475187 -0.57101,-0.539403 -0.25131,0.253834 0.0475,0.513724 0.0714,0.770572 0.0243,0.263138 -0.70189,0.577932 -0.35689,0.693516 0.0684,0.12139 0.75912,0.01821 0.92789,0 0.44541,-0.04809 0.54725,-0.174669 0.85651,-0.308225 0.20059,-0.08658 0.14275,-0.660704 0.14275,-0.847629 0,-0.317718 0.57464,0.139873 0.85651,0.231169 0.215,0.06963 -0.23792,0.41097 -0.35688,0.61646 -0.15396,0.265928 -0.31699,0.513329 -0.42825,0.693516 -0.0845,0.13684 -0.19034,0.256857 -0.28551,0.385281 -0.015,0.02046 0.84673,0.07707 0.99927,0.07707 0.25648,0 0.57191,-0.257404 0.78513,-0.385281 0.46062,-0.276265 0,-0.450701 0,-0.770572 0,-0.440212 0,-0.639134 0,-0.847629 0,-0.317718 -0.57464,-0.139882 -0.85651,-0.231169 -0.30682,-0.09938 -0.50213,-0.651156 -0.21413,-0.770572 -0.007,-0.02369 0.71933,0.345811 0.78515,0.385282 0.12651,0.07591 0.0475,-0.308226 0.0714,-0.462338 0.0437,-0.283273 -0.23792,-0.513715 -0.35688,-0.770573 -0.0958,-0.206772 0.42824,0 0.64238,0 0.23469,0 0.39649,0.493096 0.49964,0.693516 0.14175,0.275476 0.2831,0.458462 0.42824,0.693507 0.0384,0.06218 0.721417,0.28321 0.785157,0.308234 0.30472,0.119632 0.46343,0.250164 0.71375,0.385282 0.27043,0.145984 0.40209,0.337637 0.64238,0.539403 0.3007,0.252479 0.26715,0.370818 0.49964,0.693516 0.18687,0.259415 0.2833,0.488897 0.42824,0.770563 0.43536,0.84605 -0.43845,0.236679 -0.571,0.308235 z m 7.92274,-1.232919 c 0.18612,0.361684 -0.79489,0.367785 -0.99926,0.462347 -0.30205,0.139747 -0.5504,0.04406 -0.85652,0.07707 -0.14809,0.01597 -0.58437,-0.315439 -0.71377,-0.385282 -0.30307,-0.163596 -0.43344,-0.311967 -0.64237,-0.462347 -0.22151,-0.159424 -0.59142,-0.158518 -0.92789,-0.231169 -0.1633,-0.03526 0,0.359603 0,0.539395 0,0.313537 0.49518,0.332935 0.71375,0.539403 0.16946,0.160088 -0.74777,0.219433 -0.85651,0.231169 -0.24545,0.02647 -0.33728,-0.546178 -0.42824,-0.693516 -0.20004,-0.323918 -0.31502,-0.297557 -0.57102,-0.539394 -0.22843,-0.21579 -0.51783,-0.12148 -0.85651,-0.231169 -0.24225,-0.07842 0.33307,0.41097 0.49961,0.61645 0.14404,0.177684 0.40376,0.381397 0.57103,0.539404 0.23653,0.223443 0.39415,0.330961 0.64237,0.539403 0.45259,0.380024 -0.20283,0.383218 -0.28548,0.539394 -0.16057,0.303335 -0.61795,-0.20784 -0.92792,-0.308225 -0.1837,-0.05949 -0.0475,0.41097 -0.0714,0.616459 -0.0555,0.479341 -0.16437,0.399297 -0.28549,0.693507 -0.15333,0.37246 -0.47205,-0.436811 -0.49964,-0.462338 -0.36438,-0.337197 0.39591,-0.801052 0.42826,-0.847628 0.25402,-0.36565 0.11099,-0.399423 0.21414,-0.770572 0.0834,-0.300312 -0.47213,-0.36548 -0.71378,-0.539404 -0.21609,-0.15553 -0.30834,-0.499331 -0.42824,-0.693516 -0.16919,-0.273959 -0.23653,-0.510709 -0.35689,-0.770563 -0.26005,-0.561529 0.095,-0.461315 0.14275,-0.693516 0.0638,-0.310145 0.56794,0.168864 0.85652,0.231169 0.5345,0.115405 0.27297,-0.471508 0.35688,-0.616459 0.11625,-0.200806 -0.42826,0.102744 -0.64239,0.154121 -0.50015,0.11999 -0.36232,-0.391176 -0.57101,-0.616459 -0.10926,-0.117953 0.485,-0.598398 0.49965,-0.61646 0.2372,-0.292676 0.53753,0.507784 0.571,0.539403 0.52111,0.492262 0.20954,-0.09695 0.49962,-0.231177 0.61368,-0.283928 0.78515,0.616459 0.92791,0.847628 0.13263,0.214785 0.47583,-0.05141 0.71375,-0.07707 0.61638,-0.06658 0.11758,-0.16925 0.42825,-0.616451 0.27557,-0.396677 0.23384,-0.231178 0.71377,-0.231178 0.45685,0 0,0.713112 0,0.770572 0,0.256858 -0.2855,0.410971 -0.42826,0.61646 -0.1671,0.240518 0.52343,0.20549 0.78513,0.308225 0.48031,0.188559 0.32688,0.07707 0.78513,0.07707 0.36979,0 0.60742,0.05034 0.92789,0.154121 0.40717,0.131861 0.19975,0.431248 0.35689,0.770563 0.15998,0.345408 -0.73432,0.154122 -0.78514,0.154122 -0.25292,0 -0.33309,-0.41097 -0.49964,-0.616459 -0.10508,-0.129672 -0.28548,0.154112 -0.42824,0.231168 -0.15347,0.08282 0.13086,0.500876 -0.28551,0.462347 -0.0115,0.01866 -0.48166,-0.594279 -0.49962,-0.616459 -0.17226,-0.212533 -0.53675,-0.356166 -0.71378,-0.462347 -0.18686,-0.112085 -0.72386,-0.132085 -0.92789,-0.154113 -0.29,-0.03131 -0.51147,-0.114301 -0.85651,-0.07707 -0.46946,0.05069 -0.26603,0.459547 -0.35687,0.61646 -0.005,0.0081 0.8444,0.07707 0.99928,0.07707 0.38321,0 0.69969,0.04468 0.99926,0.07707 0.2933,0.03167 0.48413,0.261335 0.71375,0.385291 0.28066,0.151492 0.40424,0.218212 0.71375,0.385281 0.27295,0.14733 0.65419,0.124566 0.92789,0.154113 0.22534,0.02432 0.5227,-0.205193 0.78514,-0.308225 0.24185,-0.09495 0.42826,0.308225 0.64239,0.462338 z m 4.63943,-0.231169 c -0.61684,-0.256131 -0.28017,0.483971 -0.35688,0.616459 -0.31075,0.536793 -0.28402,0.0681 -0.64238,0.154113 -0.10993,0.02638 -0.57868,-0.312362 -0.71375,-0.385282 -0.61245,-0.330603 -0.30105,0.520014 -0.35689,0.616451 -0.10166,0.175611 -0.19035,0.359602 -0.28551,0.539403 -0.14213,0.268549 -0.38235,-0.460741 -0.571,-0.693516 -0.19693,-0.242977 -0.2842,-0.56318 -0.42827,-0.770572 -0.17712,-0.254982 -0.38517,-0.363864 -0.571,-0.539394 -0.23908,-0.225848 -0.27473,-0.444904 -0.42826,-0.693516 -0.026,-0.04208 -0.59847,-0.430746 -0.64238,-0.462347 -0.33155,-0.238634 -0.0127,-0.710097 0,-0.847629 0.0252,-0.27168 0.38068,0.359603 0.57101,0.539404 0.34077,0.321908 0.37408,0.04038 0.71376,0.07707 0.49691,0.05366 0.31115,0.293923 0.57101,0.539403 0.26879,0.253906 0.35364,0.254525 0.64239,0.462338 0.29828,0.214687 0.52563,0.387085 0.71376,0.539403 0.28545,0.231142 0.42173,0.20235 0.64238,0.308226 0.22699,0.108909 -0.14276,-0.513715 -0.21413,-0.770573 -0.0286,-0.102861 -0.4907,-0.529748 -0.57101,-0.616459 -0.17413,-0.187984 -0.59201,-0.245678 -0.78512,-0.308225 -0.24661,-0.07986 -0.42041,-0.397135 -0.57103,-0.539395 -0.25104,-0.237162 -0.38859,-0.41953 -0.571,-0.616459 -0.30353,-0.327687 -0.15879,-0.342851 -0.35689,-0.770572 -0.25639,-0.553616 0.45885,-0.330235 0.6424,-0.462347 0.13083,-0.09418 0.69427,0.238167 0.85652,0.308234 0.32571,0.140663 0.31627,0.390225 0.49961,0.616451 0.41804,0.515787 -0.55549,0.224906 -0.571,0.231177 -1.17491,0.01812 -0.0499,0.600291 0.49963,0.770573 0.28148,0.09116 0.80211,0.04809 1.07064,0.07707 0.19421,0.021 0.54875,0.405793 0.71376,0.539394 0.22641,0.183319 0.38753,0.366081 0.57102,0.539403 0.21561,0.203678 0.57142,0.0463 0.8565,0.07707 0.08,0.009 0.11236,0.606473 0.14276,0.770572 0.14795,0.798629 -0.76134,0.282546 -1.07065,0.154113 z m 2.56954,-2.619942 c -1.42126,-1.174041 -1.01053,0.347265 -0.42825,0.693516 0.66416,0.451068 1.28475,0.179801 0.42825,-0.693516 z m -0.85651,4.392255 c -0.2391,0 0.0475,0.513715 0.0714,0.770572 0.0255,0.275467 0.64498,0.45534 0.78513,0.539404 0.31024,0.186073 0.55317,0.287032 0.85651,0.385281 0.58731,-0.326063 -0.36653,-1.733785 -1.71302,-1.695257 z" />
  <path
     style="fill:#67594c;fill-opacity:0.76216215;fill-rule:evenodd;stroke:#a79e93;stroke-width:0.18182935;stroke-linecap:butt;stroke-linejoin:miter;stroke-miterlimit:4;stroke-opacity:0.77837836"
     sodipodi:nodetypes="css"
     id="path47944"
     d="m 100.00249,61.226204 c -0.0776,-1.174463 -3.196887,-0.951746 -3.230097,-0.108972 -0.0604,1.534586 3.332897,1.664392 3.230097,0.108972 z" />
  <path
     style="fill:#67594c;fill-opacity:0.76216215;fill-rule:evenodd;stroke:#a79e93;stroke-width:0.27274403;stroke-linecap:butt;stroke-linejoin:miter;stroke-miterlimit:4;stroke-opacity:0.77837836"
     sodipodi:nodetypes="css"
     id="path48704"
     d="m 106.66386,71.976513 c -0.0776,-1.174472 -2.38936,-1.169707 -2.42257,-0.326924 -0.0604,1.534586 2.52538,1.882344 2.42257,0.326924 z" />
  <path
     style="fill:#67594c;fill-opacity:0.76216215;fill-rule:evenodd;stroke:#a79e93;stroke-width:0.27274403;stroke-linecap:butt;stroke-linejoin:miter;stroke-miterlimit:4;stroke-opacity:0.77837836"
     sodipodi:nodetypes="css"
     id="path48706"
     d="m 114.4459,70.882094 c -0.6482,0.946937 1.11134,2.565685 1.64402,1.948571 0.96999,-1.123687 -0.78557,-3.202656 -1.64402,-1.948571 z" />
  <path
     style="fill:#a7a59b;fill-opacity:0.44324323;fill-rule:evenodd;stroke:#a7a59c;stroke-width:0.29753894;stroke-linecap:butt;stroke-linejoin:miter;stroke-miterlimit:4;stroke-opacity:0.23783779"
     id="path52514"
     d="m 68.976704,64.047473 c -0.320308,0 -1.530347,0 -2.284034,0 -0.792284,0 -1.088482,-0.260071 -1.713024,-0.462348 -0.652076,-0.211187 -0.92472,-0.292128 -1.713023,-0.462338 -0.68021,-0.146872 -1.293474,-0.06074 -1.855774,0 -0.622947,0.06729 -1.103633,0.227024 -1.855774,0.308225 -0.753048,0.08129 -1.227318,-0.305031 -1.713032,-0.462337 -0.602136,-0.195028 -1.342309,-0.221973 -2.141276,-0.308235 -0.697405,-0.07528 -1.439772,0 -2.141283,0 -0.713761,0 -1.427523,0 -2.141284,0 -0.795625,0 -1.565776,0.07663 -2.284034,0.154113 -0.941517,0.10165 -1.193816,-0.294174 -1.713023,-0.462338 -0.698203,-0.226126 -0.906819,-0.288261 -1.713024,-0.462347 -0.826592,-0.178473 -1.361242,0.201452 -1.855774,0.308234 -0.560431,0.121004 -0.926375,0.407911 -1.570273,0.616451 -0.589337,0.190882 -1.520656,0 -2.141284,0 -0.550266,0 -1.162217,-0.233349 -1.855773,-0.308225 -0.697402,-0.07528 -1.43977,0 -2.141283,0 -0.714458,0 -1.375031,-0.240914 -1.998527,-0.308226 -0.404547,-0.0437 0.285502,-0.82194 0.428255,-1.232919 0.194457,-0.559816 1.084732,-0.459197 1.570272,-0.61645 0.509568,-0.165042 0.475836,1.027429 0.713762,1.541135 0.0905,0.195431 1.080446,-1.020637 1.142015,-1.078797 0.447129,-0.422375 0.70808,-0.982854 0.999266,-1.387023 0.600773,-0.833901 -0.793032,-0.563378 -1.28477,-0.61646 -0.195212,-0.02108 -0.380676,-0.102745 -0.571006,-0.154112 -0.454651,-0.122709 0.380676,-0.924685 0.571006,-1.387032 0.271244,-0.658891 -1.333975,0.08237 -1.998528,0.154112 -0.348729,0.03768 -1.274063,0.901141 -1.570272,1.078807 -0.392412,0.235359 -0.475837,-0.821949 -0.713761,-1.232919 -0.156983,-0.271151 -1.783131,0.130865 -1.998527,0.154112 -0.843937,0.09111 -1.14012,0.276795 -1.713026,0.462347 -0.241837,0.07833 -0.956869,0.903905 -1.142016,1.078798 -0.191603,0.181003 -1.339743,-0.525954 -1.570273,-0.61646 -0.872585,-0.342563 -1.091926,0.214337 -1.570272,0.308235 -0.431625,0.0847 0.571007,0.719195 0.856512,1.078797 0.372897,0.469669 1.142887,0.09256 1.713024,0.154113 0.512151,0.05527 -0.856511,0.616459 -1.284767,0.924685 -0.23677,0.170415 -1.84797,0.137863 -1.99853,0.154112 -0.435521,0.04702 -1.073637,0.455609 -1.570272,0.61646 -0.594376,0.192506 -1.080476,0.325766 -1.713024,0.462347 -0.535908,0.11571 -0.983247,0.759042 -1.427521,1.078797 -0.805121,0.579466 -0.204465,1.183123 -0.142752,1.849371 0.04254,0.459251 1.998043,5.4e-5 1.998528,0 0.254971,-0.02755 -0.190332,0.513715 -0.285504,0.770572 -0.126735,0.34207 -1.434202,0.556254 -1.713024,0.61646 -0.502545,0.108505 0.380676,1.02742 0.571006,1.541135 0.218598,0.589991 1.149269,-0.279746 1.713026,-0.462338 0.407657,-0.132031 0.761339,-0.41097 1.142015,-0.616459 0.385404,-0.208038 -0.09517,0.924684 -0.14275,1.387031 -0.04872,0.473357 1.850594,-0.767467 1.855776,-0.770572 0.526813,-0.315968 0.837354,-0.724839 1.42752,-1.078797 0.639216,-0.383389 0.81834,1.009682 0.999264,1.23291 0.08174,0.100851 0.275084,2.101382 0.285505,2.157595 0.108835,0.58746 0.951685,-0.616451 1.427521,-0.924685 0.331912,-0.215 -0.698715,-1.508637 -0.713761,-1.541135 -0.46246,-0.998547 0.330256,-1.073289 0.571008,-1.541145 0.145707,-0.283138 0.604012,-1.173754 0.713761,-1.387032 0.324346,-0.630296 -1.333974,0.08237 -1.998529,0.154113 -0.367658,0.03966 -1.264382,0.308234 -1.713025,0.308234 -0.409328,0 0.475835,-0.719204 0.713762,-1.078807 0.360605,-0.545029 1.24741,-0.02279 1.855776,-0.154113 0.316323,-0.06828 0.38216,-1.600587 0.428255,-1.84937 0.104339,-0.563189 1.046844,0.20549 1.570272,0.308235 0.319366,0.06272 0.41017,1.654055 0.428258,1.84937 0.0048,0.05177 1.015565,0.959346 1.142015,1.078798 0.627567,0.592826 1.252893,-0.205436 1.570273,-0.308225 0.786378,-0.254695 0.944348,-0.09269 1.570273,-0.154122 0.293483,-0.0288 1.181073,0.347489 1.713025,0.462347 0.47612,0.102807 1.542807,0.425586 1.713024,0.462338 0.19169,0.04136 0.785789,0.531767 1.570269,0.616459 0.550516,0.0594 1.097341,-0.710806 1.427522,-0.924684 0.486313,-0.315018 1.035923,-0.450082 1.570273,-0.770573 0.539005,-0.323281 0.850919,-0.459314 1.427523,-0.770573 0.553374,-0.298705 1.333616,-0.08228 1.998533,-0.154113 0.754684,-0.08147 0.938508,0.675474 1.284763,0.924686 0.722579,0.520068 0.634374,0.500005 1.713024,0.61646 0.77129,0.08326 1.216904,-0.170281 1.855774,-0.308225 0.559192,-0.120744 1.629689,-0.114293 1.998533,-0.154122 0.554521,-0.05985 0.997766,-0.307902 1.713023,-0.462338 0.614702,-0.132731 1.302068,-0.154113 1.998525,-0.154113 1.263645,0 -0.295009,0.398113 -0.571002,0.770573 -0.367689,0.496182 -1.149269,0.279755 -1.713024,0.462338 -0.307359,0.09955 1.329535,0.6926 1.570273,0.770572 0.671059,0.217342 1.524172,-0.30871 1.998525,-0.462347 0.601346,-0.194758 1.030412,-0.219119 1.855782,-0.308225 0.835352,-0.09018 1.644715,0.13937 2.426777,0.308225 0.886132,0.19134 1.288769,-0.324932 1.713023,-0.462338 0.581408,-0.188307 1.162259,-0.233358 1.855783,-0.308225 0.841618,-0.09086 0.960965,0.518721 1.427522,0.770563 0.556018,0.300141 1.164037,0.533508 1.713024,0.770572 0.99445,0.429445 0.507763,-1.233413 0.571002,-1.387023 0.131564,-0.319575 -0.958148,-0.646508 -1.142013,-0.770572 z" />
  <path
     style="fill:#217da5;fill-opacity:1;stroke:none"
     d="m 73.675324,11.134866 c 2.47636,4.678542 3.095434,10.025433 1.857262,15.372333 4.952687,0 1.857262,10.693799 1.857262,10.693799 l -2.476352,-5.3469 -1.238172,2.673454 c 0,0 -1.238172,-2.673454 -1.238172,-2.673454 l -2.476353,5.3469 c 0,0 -2.476344,-10.693799 1.857263,-10.693799 -1.238173,-5.3469 -0.619082,-10.693791 1.857262,-15.372333 z"
     id="path2999"
     sodipodi:nodetypes="ccccccccc" />
  <path
     style="fill:none;stroke:#000000;stroke-width:0.20313248px;stroke-linecap:butt;stroke-linejoin:miter;stroke-opacity:1"
     d="m 73.650989,11.340633 0.02435,-2.1053212"
     id="path3788" />
  <path
     sodipodi:type="arc"
     style="fill:#217da5;fill-opacity:1;stroke:none"
     id="path3790"
     sodipodi:cx="391.5"
     sodipodi:cy="192.36475"
     sodipodi:rx="1.5"
     sodipodi:ry="1.5"
     d="m 393,192.36475 a 1.5,1.5 0 1 1 -3,0 1.5,1.5 0 1 1 3,0 z"
     transform="matrix(0.19465166,-0.01965369,0.0182047,0.21014474,-6.0090544,-23.638129)" />
  <path
     sodipodi:type="arc"
     style="fill:none;stroke:#7d62e5;stroke-width:80;stroke-linecap:round;stroke-linejoin:round;stroke-miterlimit:4;stroke-opacity:1;stroke-dasharray:none"
     id="path3185"
     sodipodi:cx="-1048.5714"
     sodipodi:cy="3.7907546"
     sodipodi:rx="465.71429"
     sodipodi:ry="465.71429"
     d="M -583.37469,-18.159589 A 465.71429,465.71429 0 0 1 -1046.9872,469.50235"
     transform="matrix(-0.01381473,-0.01453698,0.01453698,-0.01381473,59.156928,-3.6834026)"
     sodipodi:start="6.2360352"
     sodipodi:end="7.85058"
     sodipodi:open="true" />
  <path
     sodipodi:type="arc"
     style="fill:none;stroke:#7d62e5;stroke-width:80;stroke-linecap:round;stroke-linejoin:round;stroke-miterlimit:4;stroke-opacity:1;stroke-dasharray:none"
     id="path3183"
     sodipodi:cx="-1048.5714"
     sodipodi:cy="3.7907546"
     sodipodi:rx="465.71429"
     sodipodi:ry="465.71429"
     d="M -582.91797,-3.7377047 A 465.71429,465.71429 0 0 1 -1031.9279,469.20756"
     transform="matrix(-0.00853184,-0.0089779,0.0089779,-0.00853184,64.720739,2.1256565)"
     sodipodi:start="6.2670192"
     sodipodi:end="7.8182365"
     sodipodi:open="true" />
  <path
     sodipodi:type="arc"
     style="fill:none;stroke:#7d62e5;stroke-width:80;stroke-linecap:round;stroke-linejoin:round;stroke-miterlimit:4;stroke-opacity:1;stroke-dasharray:none"
     id="path3181"
     sodipodi:cx="-1048.5714"
     sodipodi:cy="3.7907546"
     sodipodi:rx="465.71429"
     sodipodi:ry="465.71429"
     d="M -582.8576,3.1214269 A 465.71429,465.71429 0 0 1 -1025.1721,468.91684"
     transform="matrix(-0.00467535,-0.00491978,0.00491978,-0.00467535,68.7788,6.3662704)"
     sodipodi:start="6.2817481"
     sodipodi:end="7.8037165"
     sodipodi:open="true" />
</svg>
