<?xml version="1.0" encoding="UTF-8" standalone="no"?>
<!-- Created with Inkscape (http://www.inkscape.org/) -->

<svg
   xmlns:dc="http://purl.org/dc/elements/1.1/"
   xmlns:cc="http://creativecommons.org/ns#"
   xmlns:rdf="http://www.w3.org/1999/02/22-rdf-syntax-ns#"
   xmlns:svg="http://www.w3.org/2000/svg"
   xmlns="http://www.w3.org/2000/svg"
   xmlns:sodipodi="http://sodipodi.sourceforge.net/DTD/sodipodi-0.dtd"
   xmlns:inkscape="http://www.inkscape.org/namespaces/inkscape"
   width="176.03"
   height="31"
   id="svg2"
   version="1.1"
   inkscape:version="0.47 r22583"
   sodipodi:docname="socials.svg">
  <defs
     id="defs4">
    <inkscape:perspective
       sodipodi:type="inkscape:persp3d"
       inkscape:vp_x="0 : 526.18109 : 1"
       inkscape:vp_y="0 : 1000 : 0"
       inkscape:vp_z="744.09448 : 526.18109 : 1"
       inkscape:persp3d-origin="372.04724 : 350.78739 : 1"
       id="perspective10" />
    <inkscape:perspective
       id="perspective2824"
       inkscape:persp3d-origin="50 : 33.333333 : 1"
       inkscape:vp_z="100 : 50 : 1"
       inkscape:vp_y="0 : 1000 : 0"
       inkscape:vp_x="0 : 50 : 1"
       sodipodi:type="inkscape:persp3d" />
    <inkscape:perspective
       id="perspective2836"
       inkscape:persp3d-origin="50 : 33.333333 : 1"
       inkscape:vp_z="100 : 50 : 1"
       inkscape:vp_y="0 : 1000 : 0"
       inkscape:vp_x="0 : 50 : 1"
       sodipodi:type="inkscape:persp3d" />
    <inkscape:perspective
       id="perspective2848"
       inkscape:persp3d-origin="50 : 33.333333 : 1"
       inkscape:vp_z="100 : 50 : 1"
       inkscape:vp_y="0 : 1000 : 0"
       inkscape:vp_x="0 : 50 : 1"
       sodipodi:type="inkscape:persp3d" />
    <inkscape:perspective
       id="perspective2860"
       inkscape:persp3d-origin="50 : 33.333333 : 1"
       inkscape:vp_z="100 : 50 : 1"
       inkscape:vp_y="0 : 1000 : 0"
       inkscape:vp_x="0 : 50 : 1"
       sodipodi:type="inkscape:persp3d" />
  </defs>
  <sodipodi:namedview
     id="base"
     pagecolor="#ffffff"
     bordercolor="#666666"
     borderopacity="1.0"
     inkscape:pageopacity="0.0"
     inkscape:pageshadow="2"
     inkscape:zoom="3.959798"
     inkscape:cx="118.38989"
     inkscape:cy="1.6341475"
     inkscape:document-units="px"
     inkscape:current-layer="layer1"
     showgrid="false"
     inkscape:window-width="958"
     inkscape:window-height="976"
     inkscape:window-x="960"
     inkscape:window-y="33"
     inkscape:window-maximized="0" />
  <metadata
     id="metadata7">
    <rdf:RDF>
      <cc:Work
         rdf:about="">
        <dc:format>image/svg+xml</dc:format>
        <dc:type
           rdf:resource="http://purl.org/dc/dcmitype/StillImage" />
        <dc:title />
      </cc:Work>
    </rdf:RDF>
  </metadata>
  <g
     inkscape:label="Layer 1"
     inkscape:groupmode="layer"
     id="layer1"
     transform="translate(-596.86413,-1021.3622)">
    <path
       d="m 611.10271,1027.6184 c 0,0.7812 0,4.2681 0,4.2681 h -3.1269 v 5.2191 h 3.1269 v 15.5091 h 6.42361 v -15.5088 h 4.31008 c 0,0 0.4037,-2.5024 0.59934,-5.2387 -0.5611,0 -4.88531,0 -4.88531,0 0,0 0,-3.0363 0,-3.5685 0,-0.5332 0.70027,-1.2507 1.39261,-1.2507 0.69096,0 2.14901,0 3.49959,0 0,-0.7106 0,-3.1658 0,-5.4333 -1.80318,0 -3.85403,0 -4.7582,0 -6.74051,-3e-4 -6.58172,5.2239 -6.58172,6.0037 z"
       id="Facebook"
       style="fill:#3a3935;fill-opacity:1" />
    <path
       d="m 671.51175,1021.3622 h -8.38895 c -2.19859,0 -4.96758,0.3245 -7.28775,2.2354 -1.75323,1.5066 -2.60607,3.5795 -2.60607,5.4519 0,3.1727 2.44349,6.3881 6.75972,6.3881 0.40714,0 0.85319,-0.041 1.30441,-0.081 -0.20391,0.4867 -0.40954,0.8935 -0.40954,1.5862 0,1.2617 0.65203,2.0333 1.22174,2.7659 -1.83037,0.1212 -5.25209,0.3245 -7.77824,1.8696 -2.4025,1.4267 -3.13686,3.4996 -3.13686,4.9649 -6.9e-4,3.0104 2.85097,5.819 8.75647,5.819 7.00462,0 10.71153,-3.8647 10.71153,-7.6914 0,-2.8045 -1.62922,-4.1899 -3.42102,-5.6951 l -1.46664,-1.1384 c -0.44606,-0.3668 -1.05676,-0.8539 -1.05676,-1.7498 0,-0.8945 0.6107,-1.4652 1.13908,-1.9939 1.70948,-1.342 3.42102,-2.7659 3.42102,-5.7764 0,-3.0927 -1.95644,-4.7202 -2.89195,-5.4928 h 2.52615 l 2.60366,-1.4622 z m -3.58085,24.8961 c 0,2.5224 -2.07803,4.3927 -5.98816,4.3927 -4.35654,0 -7.16755,-2.0749 -7.16755,-4.9617 0,-2.8906 2.60676,-3.864 3.50162,-4.1898 1.71155,-0.5704 3.91014,-0.6514 4.27594,-0.6514 0.40782,0 0.61139,0 0.93861,0.04 3.09586,2.1965 4.43954,3.296 4.43954,5.3702 z m -3.25879,-13.0992 c -0.65203,0.6496 -1.75253,1.1384 -2.77105,1.1384 -3.50094,0 -5.08848,-4.5167 -5.08848,-7.2413 0,-1.0581 0.20391,-2.1555 0.89487,-3.0104 0.65203,-0.8136 1.79145,-1.343 2.85096,-1.343 3.37935,0 5.13223,4.5566 5.13223,7.4848 0,0.7336 -0.083,2.0342 -1.01853,2.9715 z"
       id="Google"
       style="fill:#3a3935;fill-opacity:1" />
    <path
       d="m 705.08088,1021.3622 c -8.56014,0 -15.50001,6.9398 -15.50001,15.4999 0,8.5602 6.93987,15.5001 15.50001,15.5001 8.56013,0 15.5,-6.9399 15.5,-15.5001 0,-8.5601 -6.93987,-15.4999 -15.5,-15.4999 z m 0,27.9 c -6.8479,0 -12.40001,-5.5521 -12.40001,-12.4001 0,-6.8479 5.55211,-12.4 12.40001,-12.4 6.84791,0 12.4,5.5521 12.4,12.4 0,6.848 -5.55209,12.4001 -12.4,12.4001 z m 5.67644,-8.2464 c 0.0995,1.3186 -0.89004,2.519 -2.21202,2.6836 -1.31991,0.1635 -2.47449,-0.7715 -2.57335,-2.0901 -0.10095,-1.3168 0.89211,-2.5189 2.21202,-2.6822 0.41783,-0.052 0.81737,0.012 1.17456,0.1512 v -6.4738 l -6.2,1.1532 v 8.0875 h -0.012 c 0.002,0.023 0.008,0.044 0.008,0.067 0.10024,1.3185 -0.89005,2.5175 -2.20996,2.6821 -1.32266,0.1637 -2.47311,-0.7719 -2.57334,-2.0886 -0.10156,-1.3185 0.88867,-2.52 2.20996,-2.6822 0.41781,-0.053 0.81737,0.012 1.17455,0.1526 v -9.3224 0 l 8.99448,-1.5363 0.008,0 v 0 l 0.004,0 -0.004,0.041 v 11.7971 h -0.0121 c 0.004,0.023 0.008,0.042 0.01,0.066 z"
       id="iTunes"
       style="fill:#3a3935;fill-opacity:1" />
    <path
       d="m 765.66821,1044.0376 h -1.70155 l 0.008,-0.9882 c 0,-0.4392 0.36063,-0.7985 0.80152,-0.7985 h 0.10847 c 0.44157,0 0.80324,0.3593 0.80324,0.7985 l -0.0196,0.9882 z m -6.3815,-2.1176 c -0.4316,0 -0.78464,0.2899 -0.78464,0.6452 v 4.8059 c 0,0.3545 0.35304,0.6438 0.78464,0.6438 0.43331,0 0.78671,-0.2893 0.78671,-0.6438 v -4.8059 c 0,-0.3555 -0.3534,-0.6452 -0.78671,-0.6452 z m 10.36328,-2.6883 v 9.1429 c 0,2.1929 -1.90202,3.9876 -4.22633,3.9876 h -17.38028 c -2.32534,0 -4.22667,-1.7947 -4.22667,-3.9876 v -9.1429 c 0,-2.1932 1.90133,-3.9881 4.22667,-3.9881 h 17.38028 c 2.32431,0 4.22633,1.7949 4.22633,3.9881 z m -20.44721,10.1355 -10e-4,-9.6309 2.15447,0 v -1.4272 l -5.74324,-0.014 v 1.4029 l 1.79282,0 v 9.6578 h 1.79732 z m 6.45831,-8.1964 h -1.79627 v 5.143 c 0,0.7439 0.0451,1.1159 -0.002,1.2472 -0.14605,0.3987 -0.80255,0.8221 -1.05848,0.043 -0.0434,-0.1362 -0.006,-0.5481 -0.006,-1.2549 l -0.007,-5.1784 h -1.78629 l 0.006,5.0967 c 0.001,0.7813 -0.0176,1.364 0.006,1.6289 0.0438,0.4674 0.0282,1.0126 0.46189,1.3238 0.80806,0.5824 2.35704,-0.087 2.74454,-0.9191 l -0.002,1.062 1.44254,0 v -8.194 z m 5.74635,5.8894 -0.005,-4.2804 c -10e-4,-1.6313 -1.22175,-2.6085 -2.87852,-1.2887 l 0.007,-3.1822 -1.79457,0 -0.008,10.9843 1.47526,-0.022 0.13431,-0.6842 c 1.88618,1.7302 3.07142,0.545 3.06865,-1.53 z m 5.62167,-0.5674 -1.34712,0.014 c -6.8e-4,0.053 -0.002,0.1154 -0.002,0.1822 v 0.7516 c 0,0.4021 -0.33238,0.7295 -0.73607,0.7295 h -0.26383 c -0.40438,0 -0.73642,-0.3274 -0.73642,-0.7295 v -0.083 -0.8267 -1.0666 h 3.08414 v -1.161 c 0,-0.8484 -0.0217,-1.6962 -0.092,-2.1812 -0.22045,-1.5342 -2.37391,-1.7776 -3.46165,-0.9923 -0.34171,0.2452 -0.60245,0.5735 -0.754,1.0147 -0.15327,0.4412 -0.22905,1.044 -0.22905,1.8097 v 2.5519 c 3.4e-4,4.2429 5.15391,3.6434 4.53907,0 z m -6.90884,-13.8562 c 0.0927,0.2254 0.23662,0.4077 0.43192,0.5455 0.1929,0.1361 0.43986,0.2039 0.73504,0.2039 0.25904,0 0.48842,-0.069 0.6882,-0.2142 0.19909,-0.1438 0.36683,-0.3583 0.50359,-0.6444 l -0.0337,0.7048 h 2.00224 v -8.5152 h -1.57617 v 6.6272 c 0,0.3588 -0.29553,0.6526 -0.65685,0.6526 -0.35926,0 -0.65581,-0.2938 -0.65581,-0.6526 v -6.6272 h -1.64507 v 5.7434 c 0,0.7316 0.0124,1.2192 0.0347,1.4666 0.0231,0.2455 0.0792,0.4812 0.17187,0.7096 z m -6.06773,-4.8093 c 0,-0.8173 0.0682,-1.4555 0.20356,-1.9157 0.1364,-0.4584 0.38131,-0.8271 0.73609,-1.1049 0.35374,-0.2794 0.80669,-0.4192 1.35745,-0.4192 0.46328,0 0.86008,0.09 1.19178,0.269 0.33307,0.179 0.58968,0.4116 0.7681,0.6985 0.18153,0.2879 0.30484,0.5839 0.37062,0.8866 0.0673,0.3069 0.10023,0.7698 0.10023,1.3942 v 2.1536 c 0,0.7898 -0.0317,1.3709 -0.093,1.7397 -0.0609,0.37 -0.19186,0.713 -0.39439,1.0348 -0.20012,0.3182 -0.45811,0.5562 -0.77087,0.7081 -0.31619,0.1534 -0.67785,0.2285 -1.08637,0.2285 -0.45639,0 -0.84078,-0.062 -1.15767,-0.1948 -0.31792,-0.1305 -0.56351,-0.3281 -0.7385,-0.5902 -0.17669,-0.2625 -0.30103,-0.5821 -0.37612,-0.9549 -0.0755,-0.3723 -0.11123,-0.9323 -0.11123,-1.6788 v -2.2545 z m 1.56827,3.3826 c 0,0.4822 0.35889,0.8759 0.796,0.8759 0.43744,0 0.79463,-0.3937 0.79463,-0.8759 v -4.5329 c 0,-0.4816 -0.35719,-0.8752 -0.79463,-0.8752 -0.43711,0 -0.796,0.3936 -0.796,0.8752 v 4.5329 z m -5.54143,2.2888 h 1.88893 l 10e-4,-6.5306 2.23199,-5.5945 h -2.06598 l -1.18661,4.1553 -1.20348,-4.1667 h -2.04463 l 2.37461,5.6089 0.002,6.5276 z"
       id="YouTube"
       style="fill:#3a3935;fill-opacity:1" />
  </g>
</svg>
